<?xml version="1.0" encoding="UTF-8" standalone="no"?>
<svg
   xmlns:dc="http://purl.org/dc/elements/1.1/"
   xmlns:cc="http://creativecommons.org/ns#"
   xmlns:rdf="http://www.w3.org/1999/02/22-rdf-syntax-ns#"
   xmlns:svg="http://www.w3.org/2000/svg"
   xmlns="http://www.w3.org/2000/svg"
   viewBox="0 0 5293.3335 2666.6667"
   height="2666.6667"
   width="5293.3335"
   xml:space="preserve"
   id="svg2"
   version="1.1"><metadata
     id="metadata8"><rdf:RDF><cc:Work
         rdf:about=""><dc:format>image/svg+xml</dc:format><dc:type
           rdf:resource="http://purl.org/dc/dcmitype/StillImage" /></cc:Work></rdf:RDF></metadata><defs
     id="defs6"><clipPath
       id="clipPath426"
       clipPathUnits="userSpaceOnUse"><path
         id="path424"
         d="m 28019,130.402 c 0,0.297 -0.1,0.598 -0.1,0.899 0,-0.301 0.1,-0.602 0.1,-0.899 m -0.1,1 c -0.1,0.7 -0.2,1.297 -0.2,2 0,-0.703 0.1,-1.3 0.2,-2 m -0.2,2 -22.9,175.7 v 0 l 22.9,-175.7" /></clipPath></defs><g
     transform="matrix(1.3333333,0,0,-1.3333333,0,2666.6667)"
     id="g10"><g
       transform="scale(0.1)"
       id="g12"><g
         transform="scale(2.43558)"
         id="g14"><path
           id="path16"
           style="fill:#ffffff;fill-opacity:1;fill-rule:nonzero;stroke:none"
           d="M 16300,0 H 0 V 8211.59 H 16300 V 0" /></g><g
         transform="scale(2.37766)"
         id="g18"><path
           id="path20"
           style="fill:#caf0ff;fill-opacity:1;fill-rule:nonzero;stroke:none"
           d="m 13817.8,7964 c -1839,846.5 -2906.1,-540.11 -4900.62,-684.41 -961.11,-69.52 -1542.9,120.13 -2105.26,309.79 -604.71,203.93 -1186.89,407.86 -2193.97,289.56 C 2877.52,7674.49 2299.45,6369.51 1494.32,4955.47 689.175,3541.43 569.595,4020.09 203.623,2625.27 -162.353,1230.46 1395.32,0 1395.32,0 H 14649.9 c 786.9,57.7036 1534.6,826.318 1574.2,2000.04 75.9,2249.81 -759.4,2202.8 -796,3174.36 -36.6,971.55 228.7,1943.1 -1610.3,2789.6" /></g><path
         id="path22"
         style="fill:#4188e4;fill-opacity:1;fill-rule:nonzero;stroke:none"
         d="M 12543.4,1565.5 H 6523.79 c -104.91,0 -189.96,85.1 -189.96,190 v 12987.9 c 0,104.9 85.05,189.9 189.96,189.9 h 6019.61 c 104.9,0 190,-85 190,-189.9 V 1755.5 c 0,-104.9 -85.1,-190 -190,-190" /><path
         id="path24"
         style="fill:#142666;fill-opacity:1;fill-rule:nonzero;stroke:none"
         d="M 12351,10826.6 H 6717.67 v 3016.6 H 12351 v -3016.6" /><path
         id="path26"
         style="fill:#142666;fill-opacity:1;fill-rule:nonzero;stroke:none"
         d="M 12351,7535.3 H 6717.67 v 3016.6 H 12351 V 7535.3" /><path
         id="path28"
         style="fill:#142666;fill-opacity:1;fill-rule:nonzero;stroke:none"
         d="M 12351,4244.1 H 6717.67 V 7260.6 H 12351 V 4244.1" /><g
         transform="scale(1.55607)"
         id="g30"><path
           id="path32"
           style="fill:#4188e4;fill-opacity:1;fill-rule:nonzero;stroke:none"
           d="M 16177.9,1006.06 H 9072.1 c -67.41,0 -122.04,54.69 -122.04,122.1 v 8346.6 c 0,67.42 54.63,122.07 122.04,122.07 h 7105.8 c 67.4,0 122.1,-54.65 122.1,-122.07 v -8346.6 c 0,-67.41 -54.7,-122.1 -122.1,-122.1" /></g><g
         transform="scale(1.51414)"
         id="g34"><path
           id="path36"
           style="fill:#142666;fill-opacity:1;fill-rule:nonzero;stroke:none"
           d="M 16300,7150.34 H 9650.88 V 9142.59 H 16300 V 7150.34" /></g><g
         transform="scale(1.51414)"
         id="g38"><path
           id="path40"
           style="fill:#142666;fill-opacity:1;fill-rule:nonzero;stroke:none"
           d="M 16300,4976.62 H 9650.88 V 6968.88 H 16300 V 4976.62" /></g><g
         transform="scale(1.51414)"
         id="g42"><path
           id="path44"
           style="fill:#142666;fill-opacity:1;fill-rule:nonzero;stroke:none"
           d="M 16300,2802.98 H 9650.88 V 4795.19 H 16300 V 2802.98" /></g><g
         transform="scale(1.27946)"
         id="g46"><path
           id="path48"
           style="fill:#afdbfe;fill-opacity:1;fill-rule:nonzero;stroke:none"
           d="M 16300,3559.39 V 3317.1 h -1322.4 v 242.29 H 16300" /></g><g
         transform="scale(1.28285)"
         id="g50"><path
           id="path52"
           style="fill:#ffffff;fill-opacity:1;fill-rule:nonzero;stroke:none"
           d="M 16300,3764.83 V 3550 h -1179.6 v 214.83 H 16300" /></g><g
         transform="scale(1.26853)"
         id="g54"><path
           id="path56"
           style="fill:#70c0fd;fill-opacity:1;fill-rule:nonzero;stroke:none"
           d="m 16300,4024.67 v -217.34 h -1192.9 v 217.34 H 16300" /></g><g
         transform="scale(1.37068)"
         id="g58"><path
           id="path60"
           style="fill:#afdbfe;fill-opacity:1;fill-rule:nonzero;stroke:none"
           d="m 16300,3096.35 h -251.2 V 4474.56 H 16300 V 3096.35" /></g><g
         transform="scale(1.39236)"
         id="g62"><path
           id="path64"
           style="fill:#70c0fd;fill-opacity:1;fill-rule:nonzero;stroke:none"
           d="m 16300,3048.13 h -195.2 V 4175.14 H 16300 V 3048.13" /></g><g
         transform="scale(1.32186)"
         id="g66"><path
           id="path68"
           style="fill:#afdbfe;fill-opacity:1;fill-rule:nonzero;stroke:none"
           d="m 16300,3210.71 h -260.5 V 4639.83 H 16300 V 3210.71" /></g><g
         transform="scale(1.34353)"
         id="g70"><path
           id="path72"
           style="fill:#70c0fd;fill-opacity:1;fill-rule:nonzero;stroke:none"
           d="m 16300,3158.91 h -202.3 V 4326.87 H 16300 V 3158.91" /></g><path
         id="path74"
         style="fill:#afdbfe;fill-opacity:1;fill-rule:nonzero;stroke:none"
         d="m 16177.6,4244.1 h -601 V 5753 h 601 V 4244.1" /><path
         id="path76"
         style="fill:#ffffff;fill-opacity:1;fill-rule:nonzero;stroke:none"
         d="m 15473.9,4244.1 h -169.1 v 1361 h 169.1 v -1361" /><path
         id="path78"
         style="fill:#70c0fd;fill-opacity:1;fill-rule:nonzero;stroke:none"
         d="m 15250.4,4244.1 h -268.8 v 1578.3 h 268.8 V 4244.1" /><g
         transform="scale(1.15777)"
         id="g80"><path
           id="path82"
           style="fill:#70c0fd;fill-opacity:1;fill-rule:nonzero;stroke:none"
           d="m 16300,3665.75 h -232.2 V 5028.97 H 16300 V 3665.75" /></g><g
         transform="scale(1.05604)"
         id="g84"><path
           id="path86"
           style="fill:#ffffff;fill-opacity:1;fill-rule:nonzero;stroke:none"
           d="m 16300,4018.87 h -517.6 V 5307.65 H 16300 V 4018.87" /></g><g
         transform="scale(1.08069)"
         id="g88"><path
           id="path90"
           style="fill:#afdbfe;fill-opacity:1;fill-rule:nonzero;stroke:none"
           d="m 16300,3927.23 h -318.6 V 5675.28 H 16300 V 3927.23" /></g><g
         transform="scale(1.10237)"
         id="g92"><path
           id="path94"
           style="fill:#70c0fd;fill-opacity:1;fill-rule:nonzero;stroke:none"
           d="m 16300,3849.99 h -246.6 V 5273.47 H 16300 V 3849.99" /></g><g
         transform="scale(1.01621)"
         id="g96"><path
           id="path98"
           style="fill:#70c0fd;fill-opacity:1;fill-rule:nonzero;stroke:none"
           d="m 16300,4176.41 h -312 v 1654.08 h 312 V 4176.41" /></g><g
         transform="scale(1.13628)"
         id="g100"><path
           id="path102"
           style="fill:#ffffff;fill-opacity:1;fill-rule:nonzero;stroke:none"
           d="m 16300,3735.08 h -438.6 V 4980.63 H 16300 V 3735.08" /></g><path
         id="path104"
         style="fill:#ffffff;fill-opacity:1;fill-rule:nonzero;stroke:none"
         d="m 7515.75,4245.1 h -169.13 v 1361.1 h 169.13 V 4245.1" /><path
         id="path106"
         style="fill:#a2cff6;fill-opacity:1;fill-rule:nonzero;stroke:none"
         d="m 7292.25,4245.1 h -268.8 v 1578.4 h 268.8 V 4245.1" /><path
         id="path108"
         style="fill:#afdbfe;fill-opacity:1;fill-rule:nonzero;stroke:none"
         d="m 12175.9,4245.1 h -601 v 1509 h 601 v -1509" /><path
         id="path110"
         style="fill:#ffffff;fill-opacity:1;fill-rule:nonzero;stroke:none"
         d="m 11472.2,4245.1 h -169.1 v 1361.1 h 169.1 V 4245.1" /><path
         id="path112"
         style="fill:#70c0fd;fill-opacity:1;fill-rule:nonzero;stroke:none"
         d="m 11248.7,4245.1 h -268.8 v 1578.4 h 268.8 V 4245.1" /><path
         id="path114"
         style="fill:#afdbfe;fill-opacity:1;fill-rule:nonzero;stroke:none"
         d="m 9934.96,4245.1 h -344.3 v 1889.2 h 344.3 V 4245.1" /><path
         id="path116"
         style="fill:#b0c1ec;fill-opacity:1;fill-rule:nonzero;stroke:none"
         d="m 9299.78,4555.1 v -310 h -1691.9 v 310 h 1691.9" /><path
         id="path118"
         style="fill:#ffffff;fill-opacity:1;fill-rule:nonzero;stroke:none"
         d="M 9354.96,4830.8 V 4555.1 H 7841.71 v 275.7 h 1513.25" /><path
         id="path120"
         style="fill:#a2cff6;fill-opacity:1;fill-rule:nonzero;stroke:none"
         d="M 9121.61,5106.5 V 4830.8 H 7608.36 v 275.7 h 1513.25" /><path
         id="path122"
         style="fill:#70c0fd;fill-opacity:1;fill-rule:nonzero;stroke:none"
         d="m 10288.3,4245.1 h -271.8 v 1569.3 h 271.8 V 4245.1" /><path
         id="path124"
         style="fill:#ffffff;fill-opacity:1;fill-rule:nonzero;stroke:none"
         d="m 10898.4,4245.1 h -498.3 v 1415.4 h 498.3 V 4245.1" /><path
         id="path126"
         style="fill:#ffffff;fill-opacity:1;fill-rule:nonzero;stroke:none"
         d="m 15275.2,10826.6 h -169.1 v 1361.1 h 169.1 v -1361.1" /><path
         id="path128"
         style="fill:#70c0fd;fill-opacity:1;fill-rule:nonzero;stroke:none"
         d="m 15051.7,10826.6 h -268.8 V 12405 h 268.8 v -1578.4" /><g
         transform="scale(1.22303)"
         id="g130"><path
           id="path132"
           style="fill:#afdbfe;fill-opacity:1;fill-rule:nonzero;stroke:none"
           d="m 16300,8852.29 h -491.4 V 10086.1 H 16300 V 8852.29" /></g><g
         transform="scale(1.17986)"
         id="g134"><path
           id="path136"
           style="fill:#ffffff;fill-opacity:1;fill-rule:nonzero;stroke:none"
           d="m 16300,9176.21 h -143.3 V 10329.8 H 16300 V 9176.21" /></g><g
         transform="scale(1.16615)"
         id="g138"><path
           id="path140"
           style="fill:#70c0fd;fill-opacity:1;fill-rule:nonzero;stroke:none"
           d="m 16300,9284.1 h -230.5 v 1353.5 H 16300 V 9284.1" /></g><g
         transform="scale(1.08555)"
         id="g142"><path
           id="path144"
           style="fill:#afdbfe;fill-opacity:1;fill-rule:nonzero;stroke:none"
           d="m 16300,9973.38 h -317.2 V 11713.7 H 16300 V 9973.38" /></g><g
         transform="scale(1.04658)"
         id="g146"><path
           id="path148"
           style="fill:#afdbfe;fill-opacity:1;fill-rule:nonzero;stroke:none"
           d="m 16300,10641 v -296.3 H 14683.4 V 10641 H 16300" /></g><g
         transform="scale(1.04997)"
         id="g150"><path
           id="path152"
           style="fill:#ffffff;fill-opacity:1;fill-rule:nonzero;stroke:none"
           d="m 16300,10869.2 v -262.6 h -1441.3 v 262.6 H 16300" /></g><g
         transform="scale(1.03565)"
         id="g154"><path
           id="path156"
           style="fill:#70c0fd;fill-opacity:1;fill-rule:nonzero;stroke:none"
           d="m 16300,11285.7 v -266.2 h -1461.1 v 266.2 H 16300" /></g><g
         transform="scale(1.10723)"
         id="g158"><path
           id="path160"
           style="fill:#70c0fd;fill-opacity:1;fill-rule:nonzero;stroke:none"
           d="m 16300,9778.15 h -245.5 V 11195.5 H 16300 V 9778.15" /></g><g
         transform="scale(1.14466)"
         id="g162"><path
           id="path164"
           style="fill:#ffffff;fill-opacity:1;fill-rule:nonzero;stroke:none"
           d="m 16300,9458.41 h -435.3 V 10694.9 H 16300 V 9458.41" /></g><g
         transform="scale(1.68556)"
         id="g166"><path
           id="path168"
           style="fill:#ffffff;fill-opacity:1;fill-rule:nonzero;stroke:none"
           d="m 16300,6524.69 h -100.4 v 807.48 h 100.4 v -807.48" /></g><g
         transform="scale(1.67185)"
         id="g170"><path
           id="path172"
           style="fill:#70c0fd;fill-opacity:1;fill-rule:nonzero;stroke:none"
           d="m 16300,6578.2 h -160.8 v 944.07 H 16300 V 6578.2" /></g><g
         transform="scale(1.91457)"
         id="g174"><path
           id="path176"
           style="fill:#70c0fd;fill-opacity:1;fill-rule:nonzero;stroke:none"
           d="m 16300,5744.24 h -140.4 v 824.38 h 140.4 v -824.38" /></g><g
         transform="scale(1.83398)"
         id="g178"><path
           id="path180"
           style="fill:#afdbfe;fill-opacity:1;fill-rule:nonzero;stroke:none"
           d="m 16300,5996.67 h -187.7 v 1030.1 h 187.7 v -1030.1" /></g><g
         transform="scale(1.79501)"
         id="g182"><path
           id="path184"
           style="fill:#afdbfe;fill-opacity:1;fill-rule:nonzero;stroke:none"
           d="m 16300,6299.57 v -172.71 h -942.6 v 172.71 h 942.6" /></g><g
         transform="scale(1.79839)"
         id="g186"><path
           id="path188"
           style="fill:#ffffff;fill-opacity:1;fill-rule:nonzero;stroke:none"
           d="m 16300,6441 v -153.3 h -841.5 V 6441 h 841.5" /></g><g
         transform="scale(1.78407)"
         id="g190"><path
           id="path192"
           style="fill:#a2cff6;fill-opacity:1;fill-rule:nonzero;stroke:none"
           d="m 16300,6647.21 v -154.52 h -848.2 v 154.52 h 848.2" /></g><g
         transform="scale(1.85566)"
         id="g194"><path
           id="path196"
           style="fill:#70c0fd;fill-opacity:1;fill-rule:nonzero;stroke:none"
           d="m 16300,5926.61 h -146.5 v 845.67 h 146.5 v -845.67" /></g><g
         transform="scale(1.89308)"
         id="g198"><path
           id="path200"
           style="fill:#ffffff;fill-opacity:1;fill-rule:nonzero;stroke:none"
           d="m 16300,5809.45 h -263.2 v 747.65 h 263.2 v -747.65" /></g><g
         transform="scale(1.44282)"
         id="g202"><path
           id="path204"
           style="fill:#afdbfe;fill-opacity:1;fill-rule:nonzero;stroke:none"
           d="m 16300,7503.82 h -238.6 V 8813.19 H 16300 V 7503.82" /></g><g
         transform="scale(1.4645)"
         id="g206"><path
           id="path208"
           style="fill:#70c0fd;fill-opacity:1;fill-rule:nonzero;stroke:none"
           d="m 16300,7392.73 h -185.6 V 8464.28 H 16300 V 7392.73" /></g><g
         transform="scale(1.50193)"
         id="g210"><path
           id="path212"
           style="fill:#ffffff;fill-opacity:1;fill-rule:nonzero;stroke:none"
           d="m 16300,7208.5 h -331.8 v 942.37 H 16300 V 7208.5" /></g><path
         id="path214"
         style="fill:#afdbfe;fill-opacity:1;fill-rule:nonzero;stroke:none"
         d="m 8219.46,10826.6 h -601.02 v 1509 h 601.02 v -1509" /><path
         id="path216"
         style="fill:#ffffff;fill-opacity:1;fill-rule:nonzero;stroke:none"
         d="m 7515.75,10826.6 h -169.13 v 1361.1 h 169.13 v -1361.1" /><path
         id="path218"
         style="fill:#70c0fd;fill-opacity:1;fill-rule:nonzero;stroke:none"
         d="m 7292.25,10826.6 h -268.8 V 12405 h 268.8 v -1578.4" /><path
         id="path220"
         style="fill:#afdbfe;fill-opacity:1;fill-rule:nonzero;stroke:none"
         d="m 11898,10826.6 h -601 v 1509 h 601 v -1509" /><path
         id="path222"
         style="fill:#ffffff;fill-opacity:1;fill-rule:nonzero;stroke:none"
         d="m 11194.3,10826.6 h -169.1 v 1361.1 h 169.1 v -1361.1" /><path
         id="path224"
         style="fill:#70c0fd;fill-opacity:1;fill-rule:nonzero;stroke:none"
         d="M 10970.8,10826.6 H 10702 V 12405 h 268.8 v -1578.4" /><path
         id="path226"
         style="fill:#ffffff;fill-opacity:1;fill-rule:nonzero;stroke:none"
         d="m 9255.39,10826.6 h -546.66 v 1361.1 h 546.66 v -1361.1" /><path
         id="path228"
         style="fill:#afdbfe;fill-opacity:1;fill-rule:nonzero;stroke:none"
         d="m 9657.08,10826.6 h -344.31 v 1889.2 h 344.31 v -1889.2" /><path
         id="path230"
         style="fill:#70c0fd;fill-opacity:1;fill-rule:nonzero;stroke:none"
         d="m 10010.4,10826.6 h -271.78 v 1569.3 h 271.78 v -1569.3" /><path
         id="path232"
         style="fill:#70c0fd;fill-opacity:1;fill-rule:nonzero;stroke:none"
         d="m 8606.04,10826.6 h -317.11 v 1681 h 317.11 v -1681" /><g
         transform="scale(1.3058)"
         id="g234"><path
           id="path236"
           style="fill:#afdbfe;fill-opacity:1;fill-rule:nonzero;stroke:none"
           d="m 16300,8291.2 h -460.3 V 9446.76 H 16300 V 8291.2" /></g><g
         transform="scale(1.26263)"
         id="g238"><path
           id="path240"
           style="fill:#ffffff;fill-opacity:1;fill-rule:nonzero;stroke:none"
           d="m 16300,8574.69 h -134 v 1077.96 h 134 V 8574.69" /></g><g
         transform="scale(1.24891)"
         id="g242"><path
           id="path244"
           style="fill:#70c0fd;fill-opacity:1;fill-rule:nonzero;stroke:none"
           d="m 16300,8668.83 h -215.2 V 9932.61 H 16300 V 8668.83" /></g><g
         transform="scale(1.36935)"
         id="g246"><path
           id="path248"
           style="fill:#ffffff;fill-opacity:1;fill-rule:nonzero;stroke:none"
           d="m 16300,7906.4 h -399.2 v 993.94 H 16300 V 7906.4" /></g><g
         transform="scale(1.39399)"
         id="g250"><path
           id="path252"
           style="fill:#afdbfe;fill-opacity:1;fill-rule:nonzero;stroke:none"
           d="m 16300,7766.63 h -247 v 1355.23 h 247 V 7766.63" /></g><g
         transform="scale(1.41567)"
         id="g254"><path
           id="path256"
           style="fill:#70c0fd;fill-opacity:1;fill-rule:nonzero;stroke:none"
           d="m 16300,7647.68 h -192.1 v 1108.5 h 192.1 v -1108.5" /></g><g
         transform="scale(1.32952)"
         id="g258"><path
           id="path260"
           style="fill:#70c0fd;fill-opacity:1;fill-rule:nonzero;stroke:none"
           d="m 16300,8143.29 h -238.6 V 9407.62 H 16300 V 8143.29" /></g><g
         transform="scale(1.7432)"
         id="g262"><path
           id="path264"
           style="fill:#afdbfe;fill-opacity:1;fill-rule:nonzero;stroke:none"
           d="m 16300,7859.64 h -197.5 V 8943.39 H 16300 V 7859.64" /></g><g
         transform="scale(1.76487)"
         id="g266"><path
           id="path268"
           style="fill:#70c0fd;fill-opacity:1;fill-rule:nonzero;stroke:none"
           d="m 16300,7763.12 h -154 v 889.18 h 154 v -889.18" /></g><g
         transform="scale(1.8023)"
         id="g270"><path
           id="path272"
           style="fill:#ffffff;fill-opacity:1;fill-rule:nonzero;stroke:none"
           d="m 16300,7601.9 h -276.5 v 785.31 H 16300 V 7601.9" /></g><g
         transform="scale(1.66972)"
         id="g274"><path
           id="path276"
           style="fill:#ffffff;fill-opacity:1;fill-rule:nonzero;stroke:none"
           d="m 16300,8205.49 h -327.4 v 815.13 h 327.4 v -815.13" /></g><g
         transform="scale(1.69437)"
         id="g278"><path
           id="path280"
           style="fill:#afdbfe;fill-opacity:1;fill-rule:nonzero;stroke:none"
           d="m 16300,8086.14 h -203.2 V 9201.12 H 16300 V 8086.14" /></g><g
         transform="scale(1.71605)"
         id="g282"><path
           id="path284"
           style="fill:#70c0fd;fill-opacity:1;fill-rule:nonzero;stroke:none"
           d="m 16300,7983.98 h -158.4 v 914.48 h 158.4 v -914.48" /></g><g
         transform="scale(1.62989)"
         id="g286"><path
           id="path288"
           style="fill:#70c0fd;fill-opacity:1;fill-rule:nonzero;stroke:none"
           d="m 16300,8406.03 h -194.6 V 9437.36 H 16300 V 8406.03" /></g><g
         transform="scale(1.3786)"
         id="g290"><path
           id="path292"
           style="fill:#afdbfe;fill-opacity:1;fill-rule:nonzero;stroke:none"
           d="m 16300,5465.93 h -436 v 1094.59 h 436 V 5465.93" /></g><g
         transform="scale(1.33542)"
         id="g294"><path
           id="path296"
           style="fill:#ffffff;fill-opacity:1;fill-rule:nonzero;stroke:none"
           d="m 16300,5642.63 h -126.6 V 6661.86 H 16300 V 5642.63" /></g><g
         transform="scale(1.32171)"
         id="g298"><path
           id="path300"
           style="fill:#70c0fd;fill-opacity:1;fill-rule:nonzero;stroke:none"
           d="m 16300,5701.17 h -203.4 V 6895.38 H 16300 V 5701.17" /></g><g
         transform="scale(1.46136)"
         id="g302"><path
           id="path304"
           style="fill:#afdbfe;fill-opacity:1;fill-rule:nonzero;stroke:none"
           d="m 16300,5156.36 h -411.3 V 6188.95 H 16300 V 5156.36" /></g><g
         transform="scale(1.41819)"
         id="g306"><path
           id="path308"
           style="fill:#ffffff;fill-opacity:1;fill-rule:nonzero;stroke:none"
           d="m 16300,5313.32 h -119.3 v 959.75 h 119.3 v -959.75" /></g><g
         transform="scale(1.40448)"
         id="g310"><path
           id="path312"
           style="fill:#70c0fd;fill-opacity:1;fill-rule:nonzero;stroke:none"
           d="m 16300,5365.19 h -191.4 V 6489.03 H 16300 V 5365.19" /></g><g
         transform="scale(1.48508)"
         id="g314"><path
           id="path316"
           style="fill:#70c0fd;fill-opacity:1;fill-rule:nonzero;stroke:none"
           d="m 16300,5074 h -213.5 V 6205.93 H 16300 V 5074" /></g><path
         id="path318"
         style="fill:#ffffff;fill-opacity:1;fill-rule:nonzero;stroke:none"
         d="m 10620.5,10826.6 h -498.3 V 12242 h 498.3 v -1415.4" /><path
         id="path320"
         style="fill:#afdbfe;fill-opacity:1;fill-rule:nonzero;stroke:none"
         d="m 16177.6,7535.3 h -601 v 1509 h 601 v -1509" /><path
         id="path322"
         style="fill:#ffffff;fill-opacity:1;fill-rule:nonzero;stroke:none"
         d="m 15473.9,7535.3 h -169.1 v 1361.1 h 169.1 V 7535.3" /><path
         id="path324"
         style="fill:#70c0fd;fill-opacity:1;fill-rule:nonzero;stroke:none"
         d="m 15250.4,7535.3 h -268.8 v 1578.4 h 268.8 V 7535.3" /><g
         transform="scale(1.21817)"
         id="g326"><path
           id="path328"
           style="fill:#afdbfe;fill-opacity:1;fill-rule:nonzero;stroke:none"
           d="m 16300,6185.75 h -493.4 V 7424.49 H 16300 V 6185.75" /></g><g
         transform="scale(1.175)"
         id="g330"><path
           id="path332"
           style="fill:#ffffff;fill-opacity:1;fill-rule:nonzero;stroke:none"
           d="m 16300,6413.02 h -144 v 1158.39 h 144 V 6413.02" /></g><g
         transform="scale(1.16129)"
         id="g334"><path
           id="path336"
           style="fill:#70c0fd;fill-opacity:1;fill-rule:nonzero;stroke:none"
           d="m 16300,6488.74 h -231.5 V 7847.92 H 16300 V 6488.74" /></g><g
         transform="scale(1.05604)"
         id="g338"><path
           id="path340"
           style="fill:#ffffff;fill-opacity:1;fill-rule:nonzero;stroke:none"
           d="m 16300,7135.41 h -517.6 V 8424.28 H 16300 V 7135.41" /></g><g
         transform="scale(1.08069)"
         id="g342"><path
           id="path344"
           style="fill:#afdbfe;fill-opacity:1;fill-rule:nonzero;stroke:none"
           d="m 16300,6972.69 h -318.6 V 8720.84 H 16300 V 6972.69" /></g><g
         transform="scale(1.10237)"
         id="g346"><path
           id="path348"
           style="fill:#70c0fd;fill-opacity:1;fill-rule:nonzero;stroke:none"
           d="m 16300,6835.56 h -246.6 V 8259.13 H 16300 V 6835.56" /></g><g
         transform="scale(1.01621)"
         id="g350"><path
           id="path352"
           style="fill:#70c0fd;fill-opacity:1;fill-rule:nonzero;stroke:none"
           d="m 16300,7415.11 h -312 V 9069.3 h 312 V 7415.11" /></g><g
         transform="scale(1.1398)"
         id="g354"><path
           id="path356"
           style="fill:#ffffff;fill-opacity:1;fill-rule:nonzero;stroke:none"
           d="m 16300,6611.09 h -437.3 v 1241.8 h 437.3 v -1241.8" /></g><path
         id="path358"
         style="fill:#ffffff;fill-opacity:1;fill-rule:nonzero;stroke:none"
         d="m 8219.46,7535.3 h -601.02 v 1647 h 601.02 v -1647" /><path
         id="path360"
         style="fill:#70c0fd;fill-opacity:1;fill-rule:nonzero;stroke:none"
         d="m 7515.75,7535.3 h -169.13 v 1361.1 h 169.13 V 7535.3" /><path
         id="path362"
         style="fill:#afdbfe;fill-opacity:1;fill-rule:nonzero;stroke:none"
         d="m 7292.25,7535.3 h -268.8 v 1578.4 h 268.8 V 7535.3" /><path
         id="path364"
         style="fill:#70c0fd;fill-opacity:1;fill-rule:nonzero;stroke:none"
         d="m 11194.3,7535.3 h -169.1 v 1361.1 h 169.1 V 7535.3" /><path
         id="path366"
         style="fill:#ffffff;fill-opacity:1;fill-rule:nonzero;stroke:none"
         d="M 10970.8,7535.3 H 10702 v 1748.8 h 268.8 V 7535.3" /><path
         id="path368"
         style="fill:#70c0fd;fill-opacity:1;fill-rule:nonzero;stroke:none"
         d="m 9255.39,7535.3 h -546.66 v 1748.8 h 546.66 V 7535.3" /><path
         id="path370"
         style="fill:#ffffff;fill-opacity:1;fill-rule:nonzero;stroke:none"
         d="m 9657.08,7535.3 h -344.31 v 1509 h 344.31 v -1509" /><path
         id="path372"
         style="fill:#afdbfe;fill-opacity:1;fill-rule:nonzero;stroke:none"
         d="m 10010.4,7535.3 h -271.78 v 1986.3 h 271.78 V 7535.3" /><path
         id="path374"
         style="fill:#afdbfe;fill-opacity:1;fill-rule:nonzero;stroke:none"
         d="m 8606.04,7535.3 h -317.11 v 1468.8 h 317.11 V 7535.3" /><path
         id="path376"
         style="fill:#70c0fd;fill-opacity:1;fill-rule:nonzero;stroke:none"
         d="m 10620.5,7535.3 h -498.3 v 1681 h 498.3 v -1681" /><path
         id="path378"
         style="fill:#ffffff;fill-opacity:1;fill-rule:nonzero;stroke:none"
         d="m 12152.9,7697.2 -469.3,-167.5 -565.9,1583 469.3,167.5 565.9,-1583" /><g
         transform="scale(1.28025)"
         id="g380"><path
           id="path382"
           style="fill:#ffffff;fill-opacity:1;fill-rule:nonzero;stroke:none"
           d="m 16300,6012.28 -366.6,-130.83 -441.9,1236.48 366.6,130.84 441.9,-1236.49" /></g><g
         transform="scale(1.29818)"
         id="g384"><path
           id="path386"
           style="fill:#70c0fd;fill-opacity:1;fill-rule:nonzero;stroke:none"
           d="m 16300,5869.07 -180.7,-64.55 -435.9,1219.4 180.8,64.55 435.8,-1219.4" /></g><g
         transform="scale(1.84756)"
         id="g388"><path
           id="path390"
           style="fill:#70c0fd;fill-opacity:1;fill-rule:nonzero;stroke:none"
           d="m 16300,7464.83 -127,-45.33 -306.3,856.8 127,45.33 306.3,-856.8" /></g><g
         transform="scale(1.71698)"
         id="g392"><path
           id="path394"
           style="fill:#ffc0bb;fill-opacity:1;fill-rule:nonzero;stroke:none"
           d="m 16300,534.138 -36.6,-294.065 -197.4,-15.259 3.1,272.691 230.9,36.633" /></g><g
         transform="scale(1.55173)"
         id="g396"><path
           id="path398"
           style="fill:#f9537f;fill-opacity:1;fill-rule:nonzero;stroke:none"
           d="m 14187,3681.37 h 2113 l -230.8,-1596.47 -1744,283.87 -138.2,1312.6" /></g><g
         transform="scale(1.71977)"
         id="g400"><path
           id="path402"
           style="fill:#3d3a55;fill-opacity:1;fill-rule:nonzero;stroke:none"
           d="m 15740.6,9.53754 538.2,-3.60696 c 11.8,-0.11584 21.2,9.13092 21.1,20.64232 l -0.1,15.4681 c -0.1,11.5137 -9.7,20.8741 -21.5,20.9331 l -538.2,3.6637 c -11.7,0.0568 -21.2,-9.1877 -21.1,-20.6423 l 0.1,-15.5249 c 0.1,-11.4568 9.7,-20.87628 21.5,-20.93306" /></g><g
         transform="scale(1.7192)"
         id="g404"><path
           id="path406"
           style="fill:#09083c;fill-opacity:1;fill-rule:nonzero;stroke:none"
           d="m 16276.9,236.565 20.6,-158.9695 c 2.5,-19.6039 -8.6,-37.2857 -23.3,-37.2289 l -511.9,3.4923 c -13.4,0.0568 -26.6,8.2592 -33.7,23.5574 -7.3,15.6459 -8.9,39.2037 13.7,70.7287 45.3,62.936 195.8,77.362 269,130.875 l 238.4,-1.57 c 13.4,-0.116 24.8,-13.203 27.2,-30.885" /></g><g
         transform="scale(1.69318)"
         id="g408"><path
           id="path410"
           style="fill:#ffffff;fill-opacity:1;fill-rule:nonzero;stroke:none"
           d="m 16294.9,179.309 v 0 c 3.8,2.184 5.1,8.386 2.9,13.111 -10.4,22.147 -42.8,76.188 -107.6,65.557 -3.8,-0.651 -6.3,-5.493 -5.6,-10.513 l 0.1,-0.118 c 0.6,-4.902 4,-8.091 7.6,-7.5 58.1,9.272 85.7,-38.332 94.1,-56.876 1.8,-3.957 5.4,-5.551 8.5,-3.661" /></g><g
         transform="scale(1.68759)"
         id="g412"><path
           id="path414"
           style="fill:#ffffff;fill-opacity:1;fill-rule:nonzero;stroke:none"
           d="m 16294.9,159.399 v 0 c 3.7,2.252 5.1,8.474 2.8,13.154 -10.4,22.282 -42.9,76.441 -107.9,65.835 -3.7,-0.653 -6.2,-5.511 -5.6,-10.548 l 0.1,-0.176 c 0.6,-4.861 4.1,-8.06 7.7,-7.467 58.3,9.302 85.9,-38.457 94.3,-57.064 1.8,-3.97 5.5,-5.57 8.6,-3.734" /></g><g
         transform="scale(1.68239)"
         id="g416"><path
           id="path418"
           style="fill:#ffffff;fill-opacity:1;fill-rule:nonzero;stroke:none"
           d="m 16294.9,140.753 v 0 c 3.8,2.259 5.1,8.44 2.9,13.195 -10.5,22.35 -43,76.677 -108.3,65.978 -3.7,-0.595 -6.3,-5.468 -5.6,-10.521 v -0.178 c 0.7,-4.874 4.1,-8.083 7.8,-7.549 58.4,9.392 86.2,-38.517 94.6,-57.24 1.9,-3.982 5.5,-5.529 8.6,-3.685" /></g><g
         id="g420"><g
           clip-path="url(#clipPath426)"
           id="g422"><g
             transform="scale(1.71896)"
             id="g428"><path
               id="path430"
               style="fill:#c5cbca;fill-opacity:1;fill-rule:nonzero;stroke:none"
               d="m 16286.5,179.819 h 13.5 V 75.8613 h -13.5" /></g></g></g><g
         transform="scale(1.71913)"
         id="g432"><path
           id="path434"
           style="fill:#090730;fill-opacity:1;fill-rule:nonzero;stroke:none"
           d="m 16275,40.3682 c -0.1,0 -0.1,0 -0.1,0 l -136.7,0.9316 c 36.2,118.0822 98,138.9072 137.3,138.9072 3.2,0 6.4,-0.116 9.3,-0.406 l 13.3,-102.2025 v 0 c 0,-0.409 0.1,-0.7566 0.2,-1.1633 0,0 0,0 0,-0.0591 0,-0.175 0,-0.3499 0,-0.5226 1.7,-18.8481 -9.1,-35.4853 -23.3,-35.4853" /></g><g
         transform="scale(1.81131)"
         id="g436"><path
           id="path438"
           style="fill:#ffc0bb;fill-opacity:1;fill-rule:nonzero;stroke:none"
           d="m 16284.2,523.711 15.8,-292.33 -190.4,-1.27 -18.1,270.246 192.7,23.354" /></g><g
         transform="scale(1.81879)"
         id="g440"><path
           id="path442"
           style="fill:#3d3a55;fill-opacity:1;fill-rule:nonzero;stroke:none"
           d="m 15771.1,4.06992 508.8,-3.464264 c 11.2,-0.05584 20.1,8.685374 20,19.574344 l -0.1,14.6238 c -0.1,10.8309 -9.2,19.7396 -20.3,19.7933 l -508.9,3.4643 c -11.1,0.0537 -20.1,-8.6875 -20,-19.5743 l 0.1,-14.6238 c 0.1,-10.8868 9.2,-19.73968 20.4,-19.79338" /></g><g
         transform="scale(1.81823)"
         id="g444"><path
           id="path446"
           style="fill:#09083c;fill-opacity:1;fill-rule:nonzero;stroke:none"
           d="m 16278.1,218.675 19.5,-150.2576 c 2.4,-18.5341 -8,-35.3087 -22,-35.1969 l -484.1,3.244 c -12.6,0.1096 -25,7.8653 -31.8,22.3282 -6.9,14.7959 -8.4,37.0703 13,66.8253 42.8,59.564 185,73.202 254.3,123.801 l 225.5,-1.541 c 12.6,-0.053 23.4,-12.428 25.6,-29.203" /></g><g
         transform="scale(1.7922)"
         id="g448"><path
           id="path450"
           style="fill:#ffffff;fill-opacity:1;fill-rule:nonzero;stroke:none"
           d="m 16295.2,164.323 v 0 c 3.5,2.121 4.8,7.979 2.7,12.443 -9.8,20.924 -40.4,71.922 -101.7,61.935 -3.5,-0.612 -5.8,-5.189 -5.2,-9.932 v -0.168 c 0.6,-4.575 3.8,-7.587 7.3,-7.029 54.8,8.76 80.9,-36.214 88.8,-53.733 1.7,-3.738 5.2,-5.244 8.1,-3.516" /></g><g
         transform="scale(1.78661)"
         id="g452"><path
           id="path454"
           style="fill:#ffffff;fill-opacity:1;fill-rule:nonzero;stroke:none"
           d="m 16295.2,145.527 v 0 c 3.5,2.127 4.8,7.949 2.7,12.425 -9.9,20.989 -40.6,72.204 -102,62.129 -3.5,-0.56 -5.9,-5.149 -5.3,-9.907 l 0.1,-0.168 c 0.6,-4.589 3.8,-7.668 7.3,-7.108 55,8.844 81.1,-36.27 89.1,-53.901 1.7,-3.75 5.1,-5.206 8.1,-3.47" /></g><g
         transform="scale(1.78141)"
         id="g456"><path
           id="path458"
           style="fill:#ffffff;fill-opacity:1;fill-rule:nonzero;stroke:none"
           d="m 16295.2,127.877 v 0 c 3.6,2.133 4.8,7.97 2.7,12.461 -9.9,21.051 -40.7,72.415 -102.3,62.31 -3.5,-0.561 -5.9,-5.164 -5.2,-9.935 v -0.169 c 0.6,-4.66 3.8,-7.69 7.3,-7.129 55.2,8.87 81.4,-36.376 89.4,-54.058 1.7,-3.761 5.2,-5.276 8.1,-3.48" /></g><g
         transform="scale(1.81802)"
         id="g460"><path
           id="path462"
           style="fill:#c5cbca;fill-opacity:1;fill-rule:nonzero;stroke:none"
           d="M 16299.2,55.83 V 55.8859 55.83 m 0,0.1117 c 0,0.0538 0,0.1075 0,0.1633 0,-0.0558 0,-0.1095 0,-0.1633 m 0,0.1633 c 0,0.0559 0,0.1096 0,0.1655 0,-0.0559 0,-0.1096 0,-0.1655 m 0,0.2213 c 0.6,3.3003 0.8,6.8757 0.5,10.5047 0.3,-3.629 0.1,-7.2044 -0.5,-10.5047 m 0.4,10.9452 v 0.0558 -0.0558 m -0.2,1.1538 -12.5,96.6457 v 0 l 12.5,-96.6457" /></g><g
         transform="scale(1.81802)"
         id="g464"><path
           id="path466"
           style="fill:#090730;fill-opacity:1;fill-rule:nonzero;stroke:none"
           d="m 16277.6,33.2243 c 0,0 -0.1,0 -0.1,0 v 0 l -129.2,0.8788 c 34.2,111.6599 92.6,131.3519 129.7,131.3519 3.1,0 6.1,-0.165 8.9,-0.384 l 12.5,-96.6457 c 0.1,-0.3846 0.2,-0.7692 0.2,-1.098 v -0.0558 c 0,-0.1655 0,-0.3288 0.1,-0.4405 0.3,-3.629 0.1,-7.2044 -0.5,-10.5047 0,-0.0558 0,-0.0558 0,-0.0558 0,-0.0559 0,-0.1096 0,-0.1655 v 0 c 0,-0.0558 0,-0.1095 0,-0.1633 0,0 0,0 0,-0.0558 V 55.83 c -2.4,-12.8703 -11,-22.6057 -21.6,-22.6057" /></g><g
         transform="scale(2.07882)"
         id="g468"><path
           id="path470"
           style="fill:#3d3a55;fill-opacity:1;fill-rule:nonzero;stroke:none"
           d="m 16281.8,823.494 h -5395.2 c -10,0 -18.1,8.131 -18.1,18.184 v 55.418 c 0,10.053 8.1,18.23 18.1,18.23 h 5395.2 c 10.1,0 18.2,-8.177 18.2,-18.23 v -55.418 c 0,-10.053 -8.1,-18.184 -18.2,-18.184" /></g><g
         transform="scale(2.12061)"
         id="g472"><path
           id="path474"
           style="fill:#ff5b7e;fill-opacity:1;fill-rule:nonzero;stroke:none"
           d="m 16300,3478.43 c -19.9,-1.42 -3443.6,-0.47 -4568.3,-0.14 -195.2,0.09 -353.4,-158.07 -353.4,-353.16 V 1683.48 h 4232.4 l 656.5,656.03 32.8,1138.92" /></g><g
         transform="scale(2.14315)"
         id="g476"><path
           id="path478"
           style="fill:#e03268;fill-opacity:1;fill-rule:nonzero;stroke:none"
           d="m 16025.1,2101.39 h 207 c 37.5,0 67.9,30.37 67.9,67.89 v 1204.63 c 0,37.51 -30.4,67.89 -67.9,67.89 h -207 c -37.5,0 -68,-30.38 -68,-67.89 V 2169.28 c 0,-37.52 30.5,-67.89 68,-67.89" /></g><g
         transform="scale(1.92952)"
         id="g480"><path
           id="path482"
           style="fill:#e03268;fill-opacity:1;fill-rule:nonzero;stroke:none"
           d="M 11520.5,1136.71 H 16300 v 950.4 h -4779.5 v -950.4" /></g><g
         transform="scale(1.80424)"
         id="g484"><path
           id="path486"
           style="fill:#2b1c35;fill-opacity:1;fill-rule:nonzero;stroke:none"
           d="m 16300,2613.35 c 0,0 -942.6,-3.44 -1088,-192.39 -145.4,-188.94 -256,-1464.989 0,-2023.119 0,0 331.7,-11.639 407.3,34.862 0,0 -23.3,941.837 -11.7,1191.807 11.7,250.02 186.2,284.88 209.5,308.1 23.3,23.28 482.9,680.74 482.9,680.74" /></g><g
         transform="scale(1.96801)"
         id="g488"><path
           id="path490"
           style="fill:#ffc0bb;fill-opacity:1;fill-rule:nonzero;stroke:none"
           d="m 16267.2,4189.61 32.8,-265.8 -263.7,9.04 7.6,304.17 223.3,-47.41" /></g><g
         transform="scale(1.96521)"
         id="g492"><path
           id="path494"
           style="fill:#e8b5b5;fill-opacity:1;fill-rule:nonzero;stroke:none"
           d="m 16300,4117.82 -6.5,52.56 h 0.1 l 6.4,-52.56 v 0" /></g><g
         transform="scale(1.96521)"
         id="g496"><path
           id="path498"
           style="fill:#fda19a;fill-opacity:1;fill-rule:nonzero;stroke:none"
           d="m 16152.1,4090.65 c -28.9,0 -59.2,3.41 -88.8,12.16 l 3.4,140.24 226.8,-72.67 6.5,-52.56 c -33.9,-12.67 -88.3,-27.17 -147.9,-27.17" /></g><g
         transform="scale(1.90681)"
         id="g500"><path
           id="path502"
           style="fill:#fee4cb;fill-opacity:1;fill-rule:nonzero;stroke:none"
           d="m 16230.8,4758.47 35.2,-187.12 34,-10.07 -8.5,237.36 -60.7,-40.17" /></g><g
         transform="scale(1.91088)"
         id="g504"><path
           id="path506"
           style="fill:#f99893;fill-opacity:1;fill-rule:nonzero;stroke:none"
           d="m 16280.6,4595.62 c 19.4,-39.09 9.8,-83.41 -21.6,-98.96 -31.4,-15.54 -72.6,3.56 -92,42.65 -19.4,39.1 -9.8,83.37 21.6,98.91 31.3,15.6 72.5,-3.5 92,-42.6" /></g><g
         transform="scale(1.99518)"
         id="g508"><path
           id="path510"
           style="fill:#ffc0bb;fill-opacity:1;fill-rule:nonzero;stroke:none"
           d="m 15620.5,4176.37 c -10.9,15.94 -20.3,33.03 -28.2,51.02 -22.2,48.32 -35.4,100.35 -43.3,146 -1.7,9.83 -4,19.5 -6.4,29.13 -9.8,38.94 -12.8,80.74 -6.7,124.45 19.7,140.58 131.7,253.76 272.4,274.76 189.5,28.27 358.2,-110.12 371.9,-295.72 19.4,12.73 41.9,16.99 62.6,9.58 39.6,-14.24 57.2,-65.91 39.4,-115.33 -17.9,-49.42 -64.6,-77.99 -104.2,-63.75 -5.5,2 -10.5,4.76 -15.2,8.06 -4.4,-159.13 -125.1,-290.65 -280.8,-299.67 -76.2,-4.41 -147.4,21.3 -202.8,67.11 -3.8,2.66 -7.6,5.77 -11.7,9.43 -18.1,16.09 -33.6,34.73 -47,54.93" /></g><g
         transform="scale(1.95226)"
         id="g512"><path
           id="path514"
           style="fill:#333333;fill-opacity:1;fill-rule:nonzero;stroke:none"
           d="m 16241.4,4554.41 c 0.8,-15.93 14.5,-28.07 30.4,-27.15 16,0.92 28.2,14.54 27.3,30.48 -0.9,15.87 -14.6,28.06 -30.5,27.14 -16,-0.92 -28.2,-14.59 -27.2,-30.47" /></g><g
         transform="scale(1.92267)"
         id="g516"><path
           id="path518"
           style="fill:#333333;fill-opacity:1;fill-rule:nonzero;stroke:none"
           d="m 16240.4,4593.44 c 1,-16.17 14.9,-28.5 31,-27.56 16.2,0.93 28.6,14.82 27.7,30.94 -0.9,16.18 -14.8,28.51 -31,27.57 -16.2,-0.94 -28.6,-14.77 -27.7,-30.95" /></g><g
         transform="scale(1.95998)"
         id="g520"><path
           id="path522"
           style="fill:#07085b;fill-opacity:1;fill-rule:nonzero;stroke:none"
           d="m 16139.4,4591.37 c 13.8,6.58 26.9,11.99 40.2,15.97 13.4,3.93 26.7,6.07 39.9,6.12 13.2,-0.05 26.6,-1.27 39.7,-5.46 l 5.1,-1.27 c 1.7,-0.46 3.3,-1.23 4.9,-1.79 l 10.1,-3.52 c 6.8,-2.55 13.2,-5.92 20.7,-8.31 -4.6,5.96 -9.6,11.83 -15.4,17.04 -6.1,4.43 -11.9,9.94 -19.2,13.01 -13.8,7.8 -30.1,11.17 -46.2,11.17 -16.1,-0.15 -32.1,-4.44 -45.9,-11.99 -13.7,-7.65 -25.9,-17.86 -33.9,-30.97" /></g><g
         transform="scale(1.9268)"
         id="g524"><path
           id="path526"
           style="fill:#07085b;fill-opacity:1;fill-rule:nonzero;stroke:none"
           d="m 16300,4657.62 c -10.8,11.32 -25.2,18.79 -40.5,23.41 -15.3,4.41 -32.1,5.24 -48.2,1.82 -15.9,-3.53 -31.4,-10.43 -43.4,-21.18 -6.5,-4.72 -11.1,-11.41 -16.3,-17.23 -4.5,-6.38 -8.3,-13.28 -11.5,-20.24 6.9,4 12.5,8.77 18.7,12.77 l 9.3,5.71 c 1.5,0.93 2.9,2.02 4.5,2.85 l 4.7,2.39 c 12.2,7.06 25.2,11.16 38.3,14.17 13.2,2.8 26.9,3.58 40.9,2.59 14.1,-0.98 28.4,-3.53 43.5,-7.06" /></g><g
         transform="scale(1.99131)"
         id="g528"><path
           id="path530"
           style="fill:#07085b;fill-opacity:1;fill-rule:nonzero;stroke:none"
           d="m 15496.8,4769.58 c 0,0 -97.1,-7.93 0.9,79.15 98,87.07 367.3,196.77 547.3,112.94 0,0 31.5,76.2 83.1,60.92 51.6,-15.27 -29.6,-70.67 -29.6,-70.67 0,0 64.7,5.33 86,-25.46 15.8,-22.69 -23.9,-25.71 -45.6,-25.71 37.2,-4.42 161.1,-69.6 104,-357.7 -25.5,4.32 -229.2,171.29 -229.2,171.29 0,0 -266.5,-177.72 -235.2,-83.11 0,0 -317.9,-180.84 -278.1,-3.21 0,0 -131.3,-16.12 -3.6,141.56" /></g><g
         transform="scale(1.93806)"
         id="g532"><path
           id="path534"
           style="fill:#f99893;fill-opacity:1;fill-rule:nonzero;stroke:none"
           d="m 16250.3,4638.26 c 7.5,-19.61 11.7,-40.2 13.5,-61.25 0.9,-10.52 1,-21.21 -0.2,-32.15 -1.3,-10.88 -3.5,-22.13 -10.1,-33.12 l -2.9,-3.97 -2.7,-3.46 c -1,-1.6 -2.7,-2.99 -3.5,-4.7 -2,-3.2 -3.3,-6.6 -3.7,-10.11 -1.2,-7.12 2.3,-14.7 7.6,-21.41 11.6,-13.47 31.3,-20.49 51.7,-23.99 -20.1,-4.6 -44.2,-2.79 -62.6,13 -9,7.58 -16.1,19.91 -15.5,33.59 0.1,3.35 0.5,6.7 1.7,9.85 0.8,3.3 2.3,6.14 3.9,9.03 1.3,3.05 3.6,5.21 5.5,7.79 1.2,1.45 1.4,1.91 2,2.74 l 1.6,2.22 c 4.2,6.65 6.5,15.89 8.3,25.23 2.1,9.39 2.4,19.35 3.4,29.31 1.1,20.07 1.3,40.5 2,61.4" /></g><g
         transform="scale(1.98891)"
         id="g536"><path
           id="path538"
           style="fill:#07085b;fill-opacity:1;fill-rule:nonzero;stroke:none"
           d="m 16033,4720.03 c 0,0 112.8,-178.04 115.3,-283.32 0,0 47.6,94.32 126.2,96.73 0,0 25.5,177.34 -22.5,288.15 l -177.3,-37.96 -41.7,-63.6" /></g><g
         transform="scale(2.03544)"
         id="g540"><path
           id="path542"
           style="fill:#feb546;fill-opacity:1;fill-rule:nonzero;stroke:none"
           d="m 15443.9,3900.68 c 0,0 77.4,-121.11 335.2,0 0,0 466.7,128.81 502.8,-425.17 l 18.1,-515.32 c 0,0 -241.1,-0.83 -364.9,-5.4 l -3.9,-107.94 -703.9,-572.01 c 0,0 -417.8,36.06 -502.9,77.28 0,0 149.6,296.3 172.8,363.31 23.2,66.96 40,713.7 64.5,780.72 24.5,66.96 96.5,395.34 482.2,404.53" /></g><g
         transform="scale(1.88525)"
         id="g544"><path
           id="path546"
           style="fill:#452b52;fill-opacity:1;fill-rule:nonzero;stroke:none"
           d="m 16300,3792.77 c -10.1,-16.66 -18.2,-34.27 -25.2,-52.35 -3.8,-8.86 -6.7,-18.09 -10.2,-27.16 l -8.6,-27.64 c -11,-37.08 -19.1,-74.95 -24.9,-113.19 -6.9,-38.09 -10,-76.76 -13.3,-115.32 -1.3,-19.36 -2.1,-38.72 -3.3,-58.08 -0.5,-19.42 -0.8,-38.83 -1.7,-58.3 -1.3,19.42 -1.9,38.88 -2.8,58.35 0.1,19.41 0.1,38.93 0.6,58.4 1.8,38.94 5,77.87 11.3,116.43 6.5,38.46 14.6,76.81 27.2,113.83 12.7,36.87 27.7,73.57 50.9,105.03" /></g><g
         transform="scale(1.83542)"
         id="g548"><path
           id="path550"
           style="fill:#daeef7;fill-opacity:1;fill-rule:nonzero;stroke:none"
           d="m 16300,3470.21 c -7,-0.27 -290.1,171.18 -290.1,171.18 l -52.9,-11.22 18.8,-13.89 -31.7,7.95 -51.5,-7.95 c 0,0 170.2,-200.61 173.1,-206.33 2.8,-5.72 77.2,-34.33 82.9,-37.16 5.7,-2.83 151.4,97.42 151.4,97.42" /></g><g
         transform="scale(1.88644)"
         id="g552"><path
           id="path554"
           style="fill:#daeef7;fill-opacity:1;fill-rule:nonzero;stroke:none"
           d="m 16300,3509.58 -25,15.64 -11.5,-7.85 v 14.64 l -15.7,10.92 -400.6,-158.45 c 0,0 128.3,-81.37 132.5,-78.19 4.1,3.07 232.7,44.79 236.8,51.05 4.2,6.25 83.5,152.24 83.5,152.24" /></g><g
         transform="scale(1.89666)"
         id="g556"><path
           id="path558"
           style="fill:#e03268;fill-opacity:1;fill-rule:nonzero;stroke:none"
           d="m 16205.8,3497.99 -451.7,-146.15 -364.2,158.43 c -22.1,9.65 -46.3,-8.22 -43.6,-32.16 l 69.4,-620.35 c 1.1,-10.34 7.3,-19.41 16.5,-24.2 l 349.7,-184.22 316.7,117.15 8.2,11.97 41,6.22 132.9,49.14 c 11.9,4.43 19.3,16.19 18.2,28.79 l -52.2,608.28 c -1.7,20.08 -21.7,33.32 -40.9,27.1" /></g><g
         transform="scale(1.89046)"
         id="g560"><path
           id="path562"
           style="fill:#ee6c31;fill-opacity:1;fill-rule:nonzero;stroke:none"
           d="m 16300,3482.27 c -1.4,16.61 -15.3,28.57 -30.9,28.78 15.6,-0.21 29.5,-12.17 30.9,-28.78 m -41,27.19 c 0.1,0.06 0.3,0.11 0.4,0.16 -0.1,-0.05 -0.3,-0.1 -0.4,-0.16 m 9.6,1.59 h 0.1 v 0 h -0.1" /></g><g
         transform="scale(1.89666)"
         id="g564"><path
           id="path566"
           style="fill:#d21e49;fill-opacity:1;fill-rule:nonzero;stroke:none"
           d="m 15809.8,2663.05 -55.7,688.79 451.7,146.15 v 0 c 0.1,0.05 0.3,0.1 0.5,0.15 3,0.95 6.1,1.38 9.1,1.43 h 0.1 c 0.1,0 0.2,0 0.4,0 15.6,-0.21 29.4,-12.13 30.8,-28.68 v 0 l 52.1,-607.49 c 1.2,-13.08 -6.6,-25.26 -18.9,-29.84 l -132.1,-48.88 -41,-6.22 -8.2,-11.97 -288.8,-103.44" /></g><g
         transform="scale(1.8257)"
         id="g568"><path
           id="path570"
           style="fill:#c1215b;fill-opacity:1;fill-rule:nonzero;stroke:none"
           d="m 16296.5,3405.11 -292.6,127.84 9.3,-132.88 286.8,-132.83 -3.5,137.87" /></g><g
         transform="scale(1.90583)"
         id="g572"><path
           id="path574"
           style="fill:#ffc0bb;fill-opacity:1;fill-rule:nonzero;stroke:none"
           d="m 16278,2860.44 c 1.2,4.09 3.7,9.97 -1.9,14.11 -1.5,1 -3,2.05 -4.5,3.04 -22.2,14.85 -37.4,32.85 -48.7,57.04 -2.5,5.35 -5.4,14.01 -8.4,17.58 -2.2,2.52 -2.8,-1.05 -2.8,-1.05 l 5,-57.72 -67,-24.4 c 0,0 -117.4,-18.47 -175.2,6.98 0,0 -30.3,21.3 -20.6,-17.21 0.9,-3.73 3,-7.08 6,-10.23 -4.2,-2.62 -8.8,-9.39 -0.5,-35.37 0.3,-0.99 0.7,-1.94 1.2,-2.94 -2.1,-15.42 -0.5,-34.78 16.6,-45.17 3.9,-12.75 13.3,-26.5 34.9,-32.69 29.9,-8.61 98.3,-18.16 141.6,-23.67 37.9,-5.82 65.3,-8.44 80.4,-5.4 l 16,-2.57 c -0.2,4.2 41.1,63.02 45.5,88.2 4.4,25.24 -24.7,46.96 -17.6,71.47" /></g><g
         transform="scale(2.04019)"
         id="g576"><path
           id="path578"
           style="fill:#ffc0bb;fill-opacity:1;fill-rule:nonzero;stroke:none"
           d="m 15204.2,2685.24 c 0,0 379.9,19.36 486.1,55.98 106.1,36.66 203.9,99.01 203.9,99.01 v 107.93 l 360.4,5.39 c 0,0 45.4,-329.92 -56.8,-368.5 -102.3,-38.52 -805.1,-100.23 -1032.8,-59.75 l 39.2,159.94" /></g><g
         transform="scale(1.87997)"
         id="g580"><path
           id="path582"
           style="fill:#f99893;fill-opacity:1;fill-rule:nonzero;stroke:none"
           d="m 16179.5,2851 c 7,-8.24 16.1,-14.46 25.7,-19.73 9.5,-5.27 19.8,-9.04 30.3,-11.97 10.5,-2.6 21.3,-4.41 32.2,-4.89 5.3,-0.37 10.8,-0.06 16.2,-0.11 5.4,0.37 10.7,0.85 16.1,1.54 -10.8,0.48 -21.5,0.86 -32,2.19 -10.6,1.32 -21.1,3.19 -31.4,5.85 -10.2,2.71 -20.2,6.22 -29.8,10.58 -9.6,4.47 -19,9.79 -27.3,16.54" /></g><g
         transform="scale(1.88225)"
         id="g584"><path
           id="path586"
           style="fill:#f99893;fill-opacity:1;fill-rule:nonzero;stroke:none"
           d="m 16177.2,2799.64 c 7.7,-7.6 17.3,-13.13 27.2,-17.59 9.8,-4.52 20.4,-7.49 31.1,-9.56 10.7,-1.76 21.6,-2.71 32.4,-2.29 5.4,0 10.8,0.75 16.2,1.12 5.3,0.85 10.6,1.7 15.9,2.76 -10.8,-0.32 -21.4,-0.8 -32.1,-0.27 -10.6,0.43 -21.1,1.49 -31.6,3.3 -10.4,1.91 -20.6,4.67 -30.6,8.23 -9.9,3.72 -19.6,8.24 -28.5,14.3" /></g><g
         transform="scale(1.87997)"
         id="g588"><path
           id="path590"
           style="fill:#f99893;fill-opacity:1;fill-rule:nonzero;stroke:none"
           d="m 16179.5,2887.76 c 7,-8.19 16.1,-14.47 25.7,-19.73 9.5,-5.27 19.8,-9.05 30.3,-11.92 10.5,-2.66 21.3,-4.47 32.2,-4.89 5.3,-0.38 10.8,-0.11 16.2,-0.16 5.4,0.42 10.7,0.9 16.1,1.54 -10.8,0.53 -21.5,0.85 -32,2.23 -10.6,1.28 -21.1,3.14 -31.4,5.8 -10.2,2.71 -20.2,6.28 -29.8,10.64 -9.6,4.47 -19,9.73 -27.3,16.49" /></g><g
         transform="scale(2.03544)"
         id="g592"><path
           id="path594"
           style="fill:#452b52;fill-opacity:1;fill-rule:nonzero;stroke:none"
           d="m 16202.6,2959.85 c -32.4,0 -64.9,0.1 -97.3,0.54 l -97.3,1.38 c -30.9,0.58 -61.8,1.37 -92.6,2.45 3.1,31.69 5.6,63.43 7.2,95.21 1.5,33.41 2.9,66.77 2.7,100.13 0.1,33.41 -0.4,66.77 -1.3,100.13 -1.4,33.31 -2.8,66.67 -5.6,99.88 0.7,-33.31 1.4,-66.67 1.2,-99.98 0.2,-33.31 -0.1,-66.62 -1,-99.93 -0.9,-33.26 -2,-66.57 -4,-99.78 -1.8,-33.21 -4.8,-66.38 -8.3,-99.39 l -0.5,-4.72 4.7,-0.1 c 32.5,-0.88 64.9,-1.42 97.4,-1.77 32.5,-0.29 64.9,-0.58 97.4,-0.14 65,0.64 129.9,2.36 194.7,6.43 -32.5,-0.14 -64.9,-0.59 -97.4,-0.34" /></g><g
         transform="scale(1.80068)"
         id="g596"><path
           id="path598"
           style="fill:#ffc0bb;fill-opacity:1;fill-rule:nonzero;stroke:none"
           d="m 16295.6,3361.67 c -5,10.28 -91.6,-4.66 -92.5,1.5 -1,6.17 85.2,49.37 83,59.65 -2.5,11.44 -93.6,-19.33 -99.7,-15.11 -6.1,4.22 75,71.08 59.7,79.58 -11.6,6.44 -66.7,-31.49 -92.7,-50.26 -8.3,-6 -12.4,-16.27 -10.5,-26.38 l 35.1,-208.03 c 3.1,-18.21 19.5,-31.21 38,-30.1 l 3.1,0.17 -5,112.73 c 26.1,0.89 75,3.89 70.7,13.5 -3.8,8.88 -45.9,15.55 -72.1,18.82 l -0.1,2.06 c 0.4,4.11 87.4,32.6 83,41.87" /></g><g
         transform="scale(1.6682)"
         id="g600"><path
           id="path602"
           style="fill:#ff85a5;fill-opacity:1;fill-rule:nonzero;stroke:none"
           d="m 16289.5,1665.87 h -618.8 -56.7 -1142.5 -617.6 c -220.6,0 -399.4,178.64 -399.4,399 v 1101.72 c 0,142.37 -115.5,257.77 -258,257.77 -142.5,0 -258,-115.4 -258,-257.77 V 2036.51 c 0,-494.79 401.4,-895.88 896.6,-895.88 h 636.4 528 614.5 56.7 629.3 c -13.4,172.94 -16,352.66 -10.5,525.24" /></g><g
         transform="scale(1.85447)"
         id="g604"><path
           id="path606"
           style="fill:#ff85a5;fill-opacity:1;fill-rule:nonzero;stroke:none"
           d="m 15182.6,1498.54 c -1.9,-118.15 -0.5,-295.5 1.9,-472.48 H 16300 v 472.48 h -1117.4" /></g><g
         transform="scale(2.15383)"
         id="g608"><path
           id="path610"
           style="fill:#f9537f;fill-opacity:1;fill-rule:nonzero;stroke:none"
           d="m 14630.7,2649.79 1420.8,-10.17 c 137.2,0 248.5,-111.2 248.5,-248.35 v -875.69 c 0,-349.1 -283.2,-632.132 -632.6,-632.132 h -1472.9 c 0,0 292.5,509.462 292.5,524.042 0,14.62 143.7,1242.3 143.7,1242.3" /></g><g
         transform="scale(1.96202)"
         id="g612"><path
           id="path614"
           style="fill:#ff85a5;fill-opacity:1;fill-rule:nonzero;stroke:none"
           d="m 16080.6,2911.53 v 0 c -121.1,0 -219.3,-98.11 -219.3,-219.16 v -936.73 c 0,-6.43 -0.2,-12.85 -0.6,-19.17 l 0.1,-0.2 h -0.1 c -10,-178.34 -157.9,-319.88 -339,-319.88 h -463.5 c 13.8,-133.38 31,-292.35 48,-446.575 h 431.5 c 421,0 762.3,341.025 762.3,761.715 v 960.84 c 0,121.05 -98.2,219.16 -219.4,219.16" /></g><g
         transform="scale(1.90936)"
         id="g616"><path
           id="path618"
           style="fill:#3a2645;fill-opacity:1;fill-rule:nonzero;stroke:none"
           d="m 15503.3,1175.58 c -8,74.27 -18.4,170.74 -29.7,279.88 -20.2,214.37 -41.1,355.31 -18.6,340.28 77.3,27.96 556.9,4.45 843.2,-11.58 h 0.1 c 1.7,47.4 -0.1,778.43 0.5,816.56 -1880.4,-156.49 -1466,-478.43 -1289.7,-1589.91 1,-4.76 2,-9.53 2.9,-14.243 76.5,-367.559 148.7,-670.068 148.7,-670.068 0,0 274.9,-10.999 434.3,27.443 0.3,-1.676 -49.5,432.449 -91.7,821.638" /></g><g
         transform="scale(1.49422)"
         id="g620"><path
           id="path622"
           style="fill:#f7aeaa;fill-opacity:1;fill-rule:nonzero;stroke:none"
           d="m 15760.7,125.217 289.3,178.419 250,-150.915 -87.3,-62.1036 -303.1,-42.6984 c 0,0 -118.3,15.126 -123.5,18.6029 -5.2,3.5475 -25.4,58.6951 -25.4,58.6951" /></g><g
         transform="scale(1.49422)"
         id="g624"><path
           id="path626"
           style="fill:#ff6088;fill-opacity:1;fill-rule:nonzero;stroke:none"
           d="m 15760.7,125.217 -73.4,-47.182 c -34,-21.4158 -18.9,-73.8862 21.3,-74.08489 l 555.2,-2.61162 c 19.6,-0.06797 35.5,15.66191 35.7,35.26871 l 0.5,116.1138 c -370.4,-115.9125 -497.9,-79.5066 -539.3,-27.504" /></g><g
         transform="scale(1.52317)"
         id="g628"><path
           id="path630"
           style="fill:#ffc0bb;fill-opacity:1;fill-rule:nonzero;stroke:none"
           d="m 15770.9,122.837 283.9,175.029 245.2,-148.047 -85.7,-60.9237 -297.3,-41.8869 c 0,0 -116,14.8385 -121.1,18.2494 -5.2,3.4801 -25,57.5792 -25,57.5792" /></g><g
         transform="scale(1.52317)"
         id="g632"><path
           id="path634"
           style="fill:#ff6088;fill-opacity:1;fill-rule:nonzero;stroke:none"
           d="m 15770.9,122.837 -72,-46.2849 c -33.3,-21.0089 -18.5,-72.48214 20.9,-72.67705 l 544.7,-2.562 c 19.2,-0.06667 34.8,15.36425 35,34.59845 l 0.5,113.9075 c -363.3,-113.71 -488.5,-77.9959 -529.1,-26.982" /></g><g
         transform="scale(1.63867)"
         id="g636"><path
           id="path638"
           style="fill:#07085b;fill-opacity:1;fill-rule:nonzero;stroke:none"
           d="m 16074.3,4762.34 c 136.1,95.32 63.8,133.59 143.7,216.46 62.3,64.56 81.7,112.83 80.5,160.07 1.5,47.23 -17.5,95.62 -79.2,160.68 -79.4,83.42 -6.9,121.13 -142.2,217.49 -135.3,96.3 -279.2,-137.25 -279.2,-137.25 l -148.4,-183.38 27.8,-95.07 -58.2,-185.28 c 0,0 319.1,-248.98 455.2,-153.72" /></g><g
         transform="scale(1.57685)"
         id="g640"><path
           id="path642"
           style="fill:#030321;fill-opacity:1;fill-rule:nonzero;stroke:none"
           d="m 15383,3062.82 c 0,0 -585.9,-219.55 -619.2,-392.49 -33.3,-172.94 206.4,-2368.145 309.6,-2474.56 0,0 213.5,-59.865 381.4,33.294 167.8,93.098 87.9,818.156 87.9,838.126 0,19.98 188.1,1084.26 187.2,1124.21 -0.8,39.89 305.4,518.82 378.6,585.34 73.4,66.53 191.5,390.78 191.5,390.78 l -917,-104.7" /></g><g
         transform="scale(1.6595)"
         id="g644"><path
           id="path646"
           style="fill:#09083c;fill-opacity:1;fill-rule:nonzero;stroke:none"
           d="m 16256.7,3066.52 c 0,0 43.3,-545.46 -109.2,-739.86 -152.4,-194.33 -1015.2,-198.61 -1015.2,-198.61 L 14960.9,137.511 c 0,0 -229.3,14.163 -376.4,42.605 0,0 -121.1,2194.454 35.4,2341.424 156.6,146.91 868.2,488.22 868.2,488.22 l 768.6,56.76" /></g><g
         transform="scale(1.56365)"
         id="g648"><path
           id="path650"
           style="fill:#07085b;fill-opacity:1;fill-rule:nonzero;stroke:none"
           d="m 16300,6024.62 c 0,0 -246,93.82 -391.3,-112.94 -111.2,-158.35 -88,-374.96 47.5,-513.22 l 54.8,-55.96 c 0,0 223.8,240.72 226.3,252.29 2.4,11.64 62.7,429.83 62.7,429.83" /></g><g
         transform="scale(1.61143)"
         id="g652"><path
           id="path654"
           style="fill:#ffc0bb;fill-opacity:1;fill-rule:nonzero;stroke:none"
           d="m 15654.9,4692.79 c 0,0 336.1,61.81 490.6,56.6 154.5,-5.22 -93.7,-406.72 -93.7,-406.72 l -252.3,-5.59 c 0,0 -154.8,172.64 -144.6,192.75 10.2,20.1 -0.5,151.79 -0.5,151.79 l 0.5,11.17" /></g><g
         transform="scale(1.59101)"
         id="g656"><path
           id="path658"
           style="fill:#ffc0bb;fill-opacity:1;fill-rule:nonzero;stroke:none"
           d="m 16238.9,5092.8 61.1,-280.08 c 0,0 -94.5,-152.54 -325.3,-58.45 0,0 33,53.24 8.6,172.53 -25,121.87 255.6,166 255.6,166" /></g><g
         transform="scale(1.56106)"
         id="g660"><path
           id="path662"
           style="fill:#e8b5b5;fill-opacity:1;fill-rule:nonzero;stroke:none"
           d="m 16297.4,4906.28 c 2.2,20.37 2.5,45.99 -1.2,77.38 v -0.06 c 3.8,-31.33 3.5,-56.95 1.3,-77.32 h -0.1" /></g><g
         transform="scale(1.58785)"
         id="g664"><path
           id="path666"
           style="fill:#9a5874;fill-opacity:1;fill-rule:nonzero;stroke:none"
           d="m 16299.9,4971.49 -7.5,34.39 c 0,0.06 0,0.06 0.1,0.13 l 7.5,-34.2 c 0,-0.13 -0.1,-0.19 -0.1,-0.32" /></g><g
         transform="scale(1.58784)"
         id="g668"><path
           id="path670"
           style="fill:#fda19a;fill-opacity:1;fill-rule:nonzero;stroke:none"
           d="m 16022.6,4823.53 c 2.2,20.03 2.5,45.22 -1.3,76.02 8.3,-0.57 16.6,-0.88 24.8,-0.88 95.1,0 182.9,40.62 246.4,107.25 l 7.5,-34.39 c -34.7,-89.87 -122.4,-144.34 -277.4,-148" /></g><g
         transform="scale(1.53534)"
         id="g672"><path
           id="path674"
           style="fill:#f99893;fill-opacity:1;fill-rule:nonzero;stroke:none"
           d="m 16284.8,5541.63 c 15.2,-47.62 -3.3,-96.14 -41.5,-108.38 -38.1,-12.18 -81.4,16.54 -96.7,64.22 -15.3,47.67 3.3,96.13 41.4,108.37 38.2,12.19 81.5,-16.54 96.8,-64.21" /></g><g
         transform="scale(1.61342)"
         id="g676"><path
           id="path678"
           style="fill:#ffc0bb;fill-opacity:1;fill-rule:nonzero;stroke:none"
           d="m 15489.4,5015.3 c -9.5,19.83 -17.2,40.66 -23,62.29 -16.7,58.14 -22.7,119.06 -23.7,171.81 -0.2,11.34 -1.1,22.62 -2.2,33.84 -4.4,45.55 -0.5,93.15 13.8,141.31 46.2,154.89 191.4,263.05 353.2,262.55 217.9,-0.68 383.8,-185.44 367.4,-396.73 24,10.97 50.1,11.9 72,0 42.1,-22.81 53.1,-83.99 24.5,-136.55 -28.5,-52.62 -85.8,-76.73 -127.9,-53.86 -5.9,3.16 -11,7.13 -15.7,11.66 -32.2,-178.38 -190.4,-305.81 -367,-289.2 -86.4,8.12 -162,49.27 -216.5,110.38 -3.7,3.6 -7.5,7.81 -11.5,12.65 -17.6,21.13 -31.8,44.81 -43.4,69.85" /></g><g
         transform="scale(1.55888)"
         id="g680"><path
           id="path682"
           style="fill:#f99893;fill-opacity:1;fill-rule:nonzero;stroke:none"
           d="m 16275.5,5515.17 c 5.1,-21.3 6.5,-43.18 5.5,-65.18 -0.6,-11.03 -2,-22.07 -4.7,-33.23 -2.9,-11.03 -6.6,-22.32 -15,-32.84 l -3.6,-3.72 -3.1,-3.15 c -1.4,-1.54 -3.3,-2.69 -4.3,-4.36 -2.6,-3.01 -4.3,-6.41 -5.2,-10 -2.3,-7.19 0.3,-15.47 4.9,-23.16 10,-15.53 29.4,-25.53 50,-32.01 -21.4,-1.93 -46.1,3.27 -62.9,22.13 -8.2,9.11 -13.8,22.84 -11.3,36.88 0.6,3.47 1.5,6.87 3.1,9.95 1.2,3.33 3.3,6.09 5.2,8.85 1.9,2.89 4.6,4.81 6.8,7.25 1.5,1.34 1.8,1.79 2.5,2.57 l 1.9,2.11 c 5.2,6.29 9,15.53 12.2,24.89 3.4,9.43 5.1,19.69 7.5,29.83 4,20.59 7,41.63 10.5,63.19" /></g><g
         transform="scale(1.57464)"
         id="g684"><path
           id="path686"
           style="fill:#333333;fill-opacity:1;fill-rule:nonzero;stroke:none"
           d="m 16232.7,5414.11 c -1.7,-18.1 11.5,-34.16 29.7,-35.88 18.1,-1.71 34.2,11.62 35.9,29.72 1.7,18.1 -11.6,34.17 -29.7,35.88 -18.1,1.72 -34.3,-11.62 -35.9,-29.72" /></g><g
         transform="scale(1.54725)"
         id="g688"><path
           id="path690"
           style="fill:#333333;fill-opacity:1;fill-rule:nonzero;stroke:none"
           d="m 16231.5,5518.13 c -1.8,-18.42 11.8,-34.77 30.2,-36.52 18.5,-1.74 34.8,11.83 36.6,30.25 1.7,18.42 -11.9,34.84 -30.3,36.52 -18.4,1.74 -34.8,-11.77 -36.5,-30.25" /></g><g
         transform="scale(1.56618)"
         id="g692"><path
           id="path694"
           style="fill:#fda8a3;fill-opacity:1;fill-rule:nonzero;stroke:none"
           d="m 16216.4,5123.22 c -1.8,0 -3.6,0 -5.4,0.13 -79.3,3.38 -89.4,76.55 -89.4,76.55 10.7,6.45 21.6,8.88 31.9,8.88 29.2,0 53.7,-19.16 53.7,-19.16 17,8.81 33.8,11.62 48.3,11.62 25.9,0 44.5,-8.94 44.5,-8.94 0,0 -9.3,-69.08 -83.6,-69.08" /></g><g
         transform="scale(1.57041)"
         id="g696"><path
           id="path698"
           style="fill:#f99893;fill-opacity:1;fill-rule:nonzero;stroke:none"
           d="m 16300,5199.55 c -9.6,-6.3 -19.6,-11.97 -29.9,-16.75 -10.3,-4.96 -20.8,-9.29 -31.5,-12.73 -21.6,-6.88 -43.9,-10.96 -66.3,-10.51 -22.5,0.32 -44.5,5.41 -65.3,14.2 -20.6,9.04 -39.7,21.84 -57.4,36.49 7.7,-8.53 16.1,-16.56 25.2,-23.75 9,-7.26 19.1,-13.31 29.4,-18.79 10.4,-5.22 21.5,-9.36 32.9,-12.23 11.5,-2.73 23.3,-4.26 35,-4.58 23.6,-0.25 47,4.33 68.7,12.93 21.6,8.59 42,20.31 59.2,35.72" /></g><g
         transform="scale(1.58236)"
         id="g700"><path
           id="path702"
           style="fill:#07085b;fill-opacity:1;fill-rule:nonzero;stroke:none"
           d="m 16123,5466.77 c 17.4,2.78 33.5,4.48 49.2,4.67 15.7,0.19 30.9,-1.51 45.3,-5.37 14.2,-4.04 28.5,-9.23 41.7,-17.63 7.2,-3.35 13.1,-8.72 20.2,-12.96 6.8,-4.67 13,-10.3 20.6,-15.04 -3,8.15 -6.7,16.18 -11.3,23.7 -5.3,7.01 -10.2,14.73 -17.2,20.48 -12.7,12.89 -29.8,21.61 -47.6,26.41 -17.9,4.81 -36.9,4.74 -54.3,0.51 -17.5,-4.43 -33.9,-12.32 -46.6,-24.77" /></g><g
         transform="scale(1.55107)"
         id="g704"><path
           id="path706"
           style="fill:#07085b;fill-opacity:1;fill-rule:nonzero;stroke:none"
           d="m 16300,5581.3 c -11.7,13.66 -27.8,23.14 -45.1,29.14 -17.4,5.86 -36.6,7.6 -55.3,4.32 -18.5,-3.36 -36.6,-10.77 -50.7,-22.76 -7.6,-5.22 -13.2,-12.64 -19.2,-19.28 -5.3,-7.28 -9.8,-15.15 -13.6,-23.08 8.2,4.13 14.9,9.28 22.3,13.41 7.6,3.67 14,8.64 21.6,11.48 14.2,7.35 29.1,11.41 44,14.24 15,2.71 30.6,3.1 46.5,1.55 16,-1.61 32.2,-4.71 49.5,-9.02" /></g><g
         transform="scale(1.54499)"
         id="g708"><path
           id="path710"
           style="fill:#ffc0bb;fill-opacity:1;fill-rule:nonzero;stroke:none"
           d="m 15929.8,4212.31 c 0,0 -31.9,-794.11 -121.3,-918.51 l 491.5,111.65 v 864.27 l -370.2,-57.41" /></g><g
         transform="scale(1.64694)"
         id="g712"><path
           id="path714"
           style="fill:#02ccc0;fill-opacity:1;fill-rule:nonzero;stroke:none"
           d="m 15140.2,3849.86 c 0,0 64.1,-187.5 75.8,-287.14 29,-247.31 -2.5,-421.75 -53.7,-562.56 -71.9,-197.46 514.9,-125.63 526.9,-119.67 12,6.01 515,200.49 515,200.49 l 95.8,278.21 v 490.67 l -27,224.35 -1132.8,-224.35" /></g><g
         transform="scale(1.67699)"
         id="g716"><path
           id="path718"
           style="fill:#ffc0bb;fill-opacity:1;fill-rule:nonzero;stroke:none"
           d="m 16249.1,4001.21 -362.7,-123.38 c 0,0 62.7,-579.79 43.1,-662.08 -16.7,-70.3 -279.7,-210.13 -446.4,-288.43 -26.8,-12.58 -56.4,-17.95 -85.9,-15.56 -94.9,7.81 -263.2,22.48 -289.6,24.33 -41.5,2.86 -155.6,-0.06 -159.2,-14.61 -3.4,-13.48 89,1.37 149,-11.03 8.5,-1.73 4,-13 2,-13.06 -31.8,-1.2 -113.8,-4.65 -140.7,-13.66 -33.1,-10.97 83.8,-2.26 147,-13.89 4.4,-0.78 8,-13.3 4.7,-16.52 -7.5,-7.39 -35,-13.89 -110.4,-21.59 -125.9,-12.88 -2.7,-28.44 -2.7,-28.44 0,0 11.3,3.22 119.4,18.01 4,0.53 8.4,-10.68 2.4,-15.92 -10.4,-9.13 -34.6,-27.19 -67.1,-36.79 -40.5,-11.93 -11,-22.43 -11,-22.43 0,0 76.6,22.78 119.6,26 32.2,2.45 183.9,-9.9 246.1,-13.47 l 4.7,10.67 c 84.4,2.45 757.2,19.92 822,436.62 66.6,428.98 15.7,795.23 15.7,795.23" /></g><g
         transform="scale(1.61334)"
         id="g720"><path
           id="path722"
           style="fill:#07085b;fill-opacity:1;fill-rule:nonzero;stroke:none"
           d="m 14150.1,3727.49 h 1201.3 l 340.6,-830.76 h 578.7 c 16.2,0 29.3,-13.08 29.3,-29.26 0,-16.17 -13.1,-29.25 -29.3,-29.25 h -1721.4 l -399.2,889.27" /></g><g
         transform="scale(1.47132)"
         id="g724"><path
           id="path726"
           style="fill:#daeef7;fill-opacity:1;fill-rule:nonzero;stroke:none"
           d="m 16169.2,3567.48 c 7.7,-38.81 41.6,-64.77 75.5,-57.97 34.1,6.79 55.3,43.76 47.6,82.57 -7.8,38.81 -41.7,64.78 -75.7,57.98 -34,-6.8 -55.3,-43.77 -47.4,-82.58" /></g><g
         transform="scale(1.67871)"
         id="g728"><path
           id="path730"
           style="fill:#02ccc0;fill-opacity:1;fill-rule:nonzero;stroke:none"
           d="m 15027.5,4504.71 c 0,0 219.3,-255.74 470.9,54.32 0,0 274.9,22.34 477.5,-121.46 202.8,-143.8 324.1,-466.85 324.1,-466.85 0,0 -367.2,-184.9 -458.3,-193.72 h -1019.3 c 0,0 -155.6,11.74 -305.4,88.05 0,0 25.8,513.49 510.5,639.66" /></g><g
         transform="scale(1.67871)"
         id="g732"><path
           id="path734"
           style="fill:#ffffff;fill-opacity:1;fill-rule:nonzero;stroke:none"
           d="m 15678.5,4163.25 c 10.6,-31.39 19.8,-63.14 29.2,-94.83 9.5,-31.69 18,-63.68 26.5,-95.67 8.1,-32.11 16.2,-64.22 23.2,-96.62 7,-32.35 13.8,-64.87 19,-97.7 l -7.8,7.75 c 10,-1.02 22.4,-0.66 33.7,0.24 11.6,0.77 23.2,2.44 34.7,4.11 23.1,4.11 46.3,8.51 69.1,14.95 l 17.1,4.52 16.9,5.19 c 11.3,3.51 22.7,6.79 33.9,10.78 l 33.6,11.62 33.2,12.8 c 22.2,8.4 43.9,18.17 65.9,27.17 l 65,29.6 64.4,31.1 c 21.2,10.96 42.5,21.86 63.9,32.46 -20.2,-12.74 -40.6,-25.25 -61.1,-37.64 -20.6,-12.1 -41.4,-23.83 -62.4,-35.45 -21.1,-11.2 -42.5,-22.1 -63.9,-32.82 l -32.6,-15.13 c -11,-5.07 -21.8,-10.19 -33,-14.54 -44.1,-19.06 -89.5,-35.14 -136.1,-47.95 l -17.5,-4.71 -17.7,-3.99 c -11.7,-2.98 -23.8,-4.76 -35.7,-6.85 -12.1,-1.67 -24.1,-3.33 -36.4,-4.05 -12.4,-0.83 -24.1,-1.37 -37.9,0.18 l -6.6,0.78 -1.1,7.02 c -9.9,64.88 -23.1,129.57 -36.9,194.08 l -21,96.8 -21.6,96.8" /></g><g
         transform="scale(1.5349)"
         id="g736"><path
           id="path738"
           style="fill:#ffffff;fill-opacity:1;fill-rule:nonzero;stroke:none"
           d="m 16300,4634.58 c -15.8,-41.04 -30,-82.28 -42.7,-123.92 -12.6,-41.63 -23.7,-83.58 -31.1,-126.13 -4.1,-21.17 -6.7,-42.54 -8.5,-63.98 -2.2,-21.37 -2.4,-42.86 -1.6,-64.3 1.5,-42.87 65.1,-244.64 83.9,-284.58 -26.5,35.44 -95.6,238.91 -100.3,283.28 -5.4,44.56 -1.7,89.58 5.8,133.3 4.1,21.82 9,43.52 15.1,64.82 6.3,21.24 13,42.35 21.1,62.94 15.9,41.17 34.7,81.31 58.3,118.57" /></g><g
         transform="scale(1.61566)"
         id="g740"><path
           id="path742"
           style="fill:#07085b;fill-opacity:1;fill-rule:nonzero;stroke:none"
           d="m 16152.6,5283.06 c 0,0 -379.4,134.31 -537.8,417.91 0,0 10.6,248.87 359.3,146.62 241.5,-70.87 325.9,-397.85 178.5,-564.53" /></g><g
         transform="scale(1.95216)"
         id="g744"><path
           id="path746"
           style="fill:#f99893;fill-opacity:1;fill-rule:nonzero;stroke:none"
           d="m 16300,4357.89 c -23.5,-3.84 -46.8,-6.35 -70,-9.63 -23.2,-3.17 -46,-6.81 -69.1,-12.5 20.6,12.4 44.5,18.08 67.9,21.52 23.6,3.02 47.5,3.89 71.2,0.61" /></g><g
         transform="scale(1.42658)"
         id="g748"><path
           id="path750"
           style="fill:#3d3a55;fill-opacity:1;fill-rule:nonzero;stroke:none"
           d="m 15988.2,0 h -128.1 l 319.5,1254.75 120.4,-30.56 L 15988.2,0" /></g><g
         transform="scale(2.0744)"
         id="g752"><path
           id="path754"
           style="fill:#3d3a55;fill-opacity:1;fill-rule:nonzero;stroke:none"
           d="m 16211.9,0.531026 h 88.1 L 16080.2,863.476 15997.5,842.41 16211.9,0.531026" /></g><g
         transform="scale(1.97141)"
         id="g756"><path
           id="path758"
           style="fill:#3d3a55;fill-opacity:1;fill-rule:nonzero;stroke:none"
           d="m 16074.4,0.558769 h -92.8 L 16212.9,908.587 16300,886.421 16074.4,0.558769" /></g><g
         transform="scale(1.83969)"
         id="g760"><path
           id="path762"
           style="fill:#c1215b;fill-opacity:1;fill-rule:nonzero;stroke:none"
           d="m 16263.3,3467.55 36.2,-722.03 c 0.5,-10.71 -8.5,-19.4 -19.2,-18.48 l -33.7,2.94 c -8.9,0.81 -15.8,8.15 -16.1,17.06 l -21.4,725.89 c 0,0 27.4,13.48 54.2,-5.38" /></g><path
         id="path764"
         style="fill:#e03268;fill-opacity:1;fill-rule:nonzero;stroke:none"
         d="M 10264.3,2522.4 H 6383.86 V 4118.5 H 10264.3 V 2522.4" /><path
         id="path766"
         style="fill:#ff5b7e;fill-opacity:1;fill-rule:nonzero;stroke:none"
         d="m 3402.81,7482.6 c 48.37,-3.4 3887.83,0 3887.83,0 V 3839.9 H 4801.75 l -1332.37,1331.3 -66.57,2311.4" /><path
         id="path768"
         style="fill:#f9537f;fill-opacity:1;fill-rule:nonzero;stroke:none"
         d="m 10186.4,5436 c 0,0 -2662.73,-159 -2662.73,0 0,158.9 0,-692.7 0,-692.7 0,0 1302.27,-233.4 1448.81,-233.4 146.54,0 828.84,-361.3 919.25,-391.4 90.42,-30.2 284.67,776.7 294.67,783.6 10.1,6.9 0,533.9 0,533.9" /><path
         id="path770"
         style="fill:#e03268;fill-opacity:1;fill-rule:nonzero;stroke:none"
         d="m 3605.78,4733.3 h -405.93 c -82.1,0 -148.65,66.5 -148.65,148.7 v 2451.9 c 0,82.1 66.55,148.7 148.65,148.7 h 405.93 c 82.09,0 148.64,-66.6 148.64,-148.7 V 4882 c 0,-82.2 -66.55,-148.7 -148.64,-148.7" /><path
         id="path772"
         style="fill:#f9537f;fill-opacity:1;fill-rule:nonzero;stroke:none"
         d="M 6288.57,5436 H 3144.15 c -282.96,0 -512.35,-229.2 -512.35,-512 V 3119.1 c 0,-719.7 583.85,-1303 1304.05,-1303 l 3237.63,-19.9 c 0,0 -224.74,59.9 -261.7,124.5 -152.41,266.4 -542.84,951.4 -542.84,975.6 0,30.1 -80.37,2539.7 -80.37,2539.7" /><path
         id="path774"
         style="fill:#ff85a5;fill-opacity:1;fill-rule:nonzero;stroke:none"
         d="M 9774.56,5024.4 V 3265.6 c 0,-351.9 -285.45,-637.1 -637.57,-637.1 H 7338.02 c -352.11,0 -637.56,285.2 -637.56,637.1 v 1758.8 c 0,227.3 -184.41,411.6 -411.89,411.6 -227.48,0 -411.89,-184.3 -411.89,-411.6 V 3220.2 c 0,-789.9 640.85,-1430.2 1431.38,-1430.2 h 1858.9 c 790.53,0 1431.34,640.3 1431.34,1430.2 v 1804.2 c 0,227.3 -184.4,411.6 -411.9,411.6 -227.44,0 -411.84,-184.3 -411.84,-411.6" /><path
         id="path776"
         style="fill:#ffc0bb;fill-opacity:1;fill-rule:nonzero;stroke:none"
         d="m 9825.95,953.301 65.5,-525.399 352.65,-27.402 -5.5,487.301 -412.65,65.5" /><path
         id="path778"
         style="fill:#3d3a55;fill-opacity:1;fill-rule:nonzero;stroke:none"
         d="M 10779.9,15.9023 9816.55,9.39844 c -21.06,-0.09766 -37.98,16.40236 -37.79,37.00386 l 0.24,27.6993 c 0.18,20.5976 17.4,37.3004 38.45,37.5004 l 963.35,6.5 c 21,0.097 38,-16.399 37.8,-37.0004 l -0.3,-27.6993 c -0.1,-20.6015 -17.4,-37.4023 -38.4,-37.5" /><path
         id="path780"
         style="fill:#e03268;fill-opacity:1;fill-rule:nonzero;stroke:none"
         d="M 9829.64,422.102 9792.7,137.699 c -4.55,-35.097 15.25,-66.7967 41.6,-66.5974 l 916.1,6.1992 c 23.8,0.1015 47.4,14.8008 60.2,42.0972 13,28.102 16,70.204 -24.5,126.602 -81.1,112.699 -350.3,138.5 -481.2,234.199 l -426.78,-2.797 c -23.83,-0.203 -44.35,-23.601 -48.48,-55.3" /><path
         id="path782"
         style="fill:#ffffff;fill-opacity:1;fill-rule:nonzero;stroke:none"
         d="m 10238.6,314.801 v 0 c -6.6,3.898 -8.9,14.801 -5,23.101 18.3,39.098 75.4,134.2 189.6,115.5 6.6,-1.101 11,-9.601 9.8,-18.402 v -0.301 c -1.2,-8.597 -7.2,-14.297 -13.6,-13.199 -102.3,16.402 -150.9,-67.5 -165.7,-100.199 -3.2,-7 -9.6,-9.801 -15.1,-6.5" /><path
         id="path784"
         style="fill:#ffffff;fill-opacity:1;fill-rule:nonzero;stroke:none"
         d="m 10333.4,278.801 v 0 c -6.6,4 -8.9,14.801 -5,23.199 18.4,39 75.4,134.199 189.6,115.5 6.6,-1.098 11,-9.598 9.8,-18.5 v -0.301 c -1.2,-8.5 -7.2,-14.199 -13.6,-13.199 -102.3,16.398 -150.9,-67.398 -165.7,-100.199 -3.2,-7 -9.6,-9.699 -15.1,-6.5" /><path
         id="path786"
         style="fill:#ffffff;fill-opacity:1;fill-rule:nonzero;stroke:none"
         d="m 10421.6,245.301 v 0 c -6.6,3.902 -8.9,14.801 -5,23.101 18.3,39.098 75.4,134.297 189.6,115.5 6.6,-1 11,-9.601 9.8,-18.402 v -0.301 c -1.2,-8.597 -7.2,-14.199 -13.6,-13.199 -102.3,16.402 -150.9,-67.5 -165.7,-100.199 -3.2,-7 -9.6,-9.801 -15.1,-6.5" /><path
         id="path788"
         style="fill:#ffc0bb;fill-opacity:1;fill-rule:nonzero;stroke:none"
         d="m 9154.38,942.102 155.88,-507 358.87,-2.5 -62.5,370.199 -452.25,139.301" /><path
         id="path790"
         style="fill:#07085b;fill-opacity:1;fill-rule:nonzero;stroke:none"
         d="m 5974.79,8632.6 c 0,0 -107.18,540.5 206.06,730.6 313.24,190.1 636.01,156.4 851.74,28.5 215.74,-128 331.28,-551.9 223.06,-788.1 l -722.74,254.3 -558.12,-225.3" /><path
         id="path792"
         style="fill:#3d3a55;fill-opacity:1;fill-rule:nonzero;stroke:none"
         d="M 10184.6,6.5 9221.26,0 c -21.06,-0.0976563 -37.98,16.4023 -37.8,37 l 0.24,27.6992 c 0.19,20.6016 17.4,37.4028 38.46,37.4998 l 963.34,6.5 c 21.1,0.102 38,-16.3982 37.8,-36.9959 L 10223,44 c -0.1,-20.5977 -17.3,-37.39844 -38.4,-37.5" /><path
         id="path794"
         style="fill:#f9537f;fill-opacity:1;fill-rule:nonzero;stroke:none"
         d="m 9234.36,412.699 -36.95,-284.398 c -4.55,-35.1018 15.24,-66.801 41.6,-66.5979 l 916.09,6.1992 c 23.8,0.0977 47.5,14.7969 60.2,42.0977 13,28.102 16,70.199 -24.5,126.602 -81,112.699 -350.28,138.5 -481.24,234.199 l -426.73,-2.899 c -23.83,-0.101 -44.36,-23.504 -48.47,-55.203" /><path
         id="path796"
         style="fill:#ffffff;fill-opacity:1;fill-rule:nonzero;stroke:none"
         d="m 9643.33,305.402 v 0 c -6.59,3.899 -8.92,14.797 -5.01,23.098 18.33,39.102 75.39,134.199 189.61,115.5 6.6,-1.098 11.01,-9.602 9.8,-18.5 l -0.04,-0.199 c -1.17,-8.598 -7.17,-14.199 -13.55,-13.199 -102.38,16.398 -150.91,-67.5 -165.75,-100.204 -3.17,-6.996 -9.59,-9.796 -15.06,-6.496" /><path
         id="path798"
         style="fill:#ffffff;fill-opacity:1;fill-rule:nonzero;stroke:none"
         d="m 9738.14,269.398 v 0 c -6.58,4.004 -8.91,14.805 -5.01,23.204 18.33,39 75.4,134.199 189.62,115.5 6.6,-1.102 11,-9.602 9.8,-18.5 l -0.04,-0.301 c -1.16,-8.5 -7.17,-14.199 -13.55,-13.199 -102.37,16.398 -150.91,-67.403 -165.75,-100.2 -3.16,-7 -9.59,-9.703 -15.07,-6.504" /><path
         id="path800"
         style="fill:#ffffff;fill-opacity:1;fill-rule:nonzero;stroke:none"
         d="m 9826.33,235.902 v 0 c -6.58,3.899 -8.91,14.797 -5,23.098 18.32,39.102 75.38,134.301 189.57,115.602 6.6,-1.102 11,-9.7 9.8,-18.5 v -0.301 c -1.2,-8.602 -7.2,-14.199 -13.6,-13.199 -102.32,16.398 -150.86,-67.5 -165.7,-100.2 -3.17,-7 -9.59,-9.8 -15.07,-6.5" /><path
         id="path802"
         style="fill:#f24665;fill-opacity:1;fill-rule:nonzero;stroke:none"
         d="m 9238.79,61.7031 c -23.68,0 -42.02,25.6992 -42.04,56.3989 0,3.398 0.21,6.699 0.66,10.199 v 0 l 23.76,182.898 c 5.28,0.403 10.9,0.699 16.81,0.699 70.16,0 180.84,-37.296 245.54,-248.5972 l -244.51,-1.5977 c -0.08,0 -0.15,0 -0.22,0" /><path
         id="path804"
         style="fill:#ffc0bb;fill-opacity:1;fill-rule:nonzero;stroke:none"
         d="m 6305.94,8140.8 -52.37,-603.6 547.91,25.5 -63.17,534.4 -432.37,43.7" /><path
         id="path806"
         style="fill:#f99893;fill-opacity:1;fill-rule:nonzero;stroke:none"
         d="m 6768.35,7843 -30.04,254.1 -432.37,43.7 -18.14,-209 c 85.97,-83.3 240.56,-169.6 480.55,-88.8" /><path
         id="path808"
         style="fill:#f99893;fill-opacity:1;fill-rule:nonzero;stroke:none"
         d="m 7104.31,8547.4 c -32.95,-66.2 -15.47,-140.7 39.04,-166.3 54.51,-25.6 125.4,7.3 158.34,73.5 32.95,66.3 15.47,140.7 -39.04,166.4 -54.51,25.6 -125.4,-7.3 -158.34,-73.6" /><path
         id="path810"
         style="fill:#ffc0bb;fill-opacity:1;fill-rule:nonzero;stroke:none"
         d="m 7058.29,8150.9 c 19.33,28.3 36.08,58.5 49.98,90.3 39.2,85.4 62.16,177.2 75.54,257.7 2.87,17.3 6.77,34.3 10.98,51.4 17.06,68.6 21.6,142.3 9.76,219 -38.09,247 -242.48,443.9 -496.96,478.1 -342.83,46 -644.83,-200.7 -666.16,-527.5 -35.26,22 -76.01,29.1 -113.18,15.6 -71.3,-25.8 -102.17,-117 -68.95,-203.6 33.22,-86.6 117.95,-135.9 189.24,-110.1 9.91,3.6 18.94,8.6 27.22,14.5 11,-279.9 231.39,-509 512.8,-521.8 137.62,-6.2 265.65,40.4 365.05,122.1 6.6,4.7 13.57,10.3 20.93,16.8 32.32,28.6 59.93,61.7 83.75,97.5" /><path
         id="path812"
         style="fill:#333333;fill-opacity:1;fill-rule:nonzero;stroke:none"
         d="m 6562.82,8638.3 c -1.32,-27.4 -25.24,-48.6 -53.44,-47.3 -28.19,1.3 -49.98,24.5 -48.65,51.9 1.32,27.5 25.24,48.6 53.44,47.3 28.19,-1.2 49.97,-24.5 48.65,-51.9" /><path
         id="path814"
         style="fill:#333333;fill-opacity:1;fill-rule:nonzero;stroke:none"
         d="m 6999.85,8590.4 c -1.31,-27.4 -25.24,-48.6 -53.43,-47.3 -28.2,1.3 -49.98,24.5 -48.66,51.9 1.32,27.5 25.25,48.6 53.44,47.3 28.19,-1.2 49.97,-24.5 48.65,-51.9" /><path
         id="path816"
         style="fill:#07085b;fill-opacity:1;fill-rule:nonzero;stroke:none"
         d="m 6626.98,8750.5 c -26.02,7.8 -50.51,13.8 -74.73,17.4 -24.18,3.6 -47.88,4.3 -70.98,1.5 -22.96,-3 -46.06,-7.8 -68.27,-17.6 -11.79,-3.5 -22.07,-10.3 -34,-15.2 -11.5,-5.5 -22.16,-12.6 -35.04,-18.1 6.44,11.5 13.94,22.8 22.69,33.1 9.63,9.4 18.87,20 30.91,27.1 22.47,16.6 50.71,26.1 79.19,29.6 28.67,3.3 57.96,-0.7 83.97,-10.9 25.87,-10.3 49.55,-25.6 66.26,-46.9" /><path
         id="path818"
         style="fill:#3d3a55;fill-opacity:1;fill-rule:nonzero;stroke:none"
         d="m 9780.79,1646 h -6025.4 c -21.34,0 -38.64,17.3 -38.64,38.7 V 1790 c 0,21.4 17.3,38.7 38.64,38.7 h 6025.4 c 21.34,0 38.63,-17.3 38.63,-38.7 v -105.3 c 0,-21.4 -17.29,-38.7 -38.63,-38.7" /><path
         id="path820"
         style="fill:#07085b;fill-opacity:1;fill-rule:nonzero;stroke:none"
         d="m 6852.09,8725.8 c 20.64,17.8 46.94,28.4 74.38,33.6 27.54,5 57.09,3.5 84.54,-5.2 27.25,-8.8 53.05,-23.5 71.77,-44 10.39,-9.3 17.33,-21.4 24.92,-32.4 6.51,-11.8 11.63,-24.2 15.63,-36.7 -11.53,7.8 -20.58,16.7 -30.75,24.3 -10.73,7 -19.46,15.7 -30.31,21.4 -19.82,13.8 -41.53,22.8 -63.45,30.1 -22.12,7.1 -45.49,10.9 -69.94,11.9 -24.5,1 -49.7,-0.2 -76.79,-3" /><path
         id="path822"
         style="fill:#07085b;fill-opacity:1;fill-rule:nonzero;stroke:none"
         d="m 6049.57,8711.9 c -32.46,29.5 -58.31,28.4 -58.31,28.4 l 22.17,172.7 59.56,102.3 c 0,0 228.26,272.6 236.18,279.3 7.92,6.6 177.15,91.2 187.53,95.5 10.38,4.2 240.98,-38.6 240.98,-38.6 0,0 411.19,65.6 334.03,-139.2 -77.16,-204.7 -379.42,-302.1 -394.34,-292.3 50.25,44.6 60.52,176.4 60.52,176.4 -219.86,-214.3 -625.22,-362.3 -688.32,-384.5" /><path
         id="path824"
         style="fill:#f99893;fill-opacity:1;fill-rule:nonzero;stroke:none"
         d="m 6743.52,8642.4 c 14.92,-23.4 27.66,-47.9 39.19,-73 11.58,-25.1 21.68,-50.8 29.58,-77.6 3.66,-13.5 6.96,-27.1 7.95,-41.9 0.12,-3.7 0.08,-7.5 -0.39,-11.5 -0.22,-2 -0.8,-4.1 -1.24,-6.2 -0.91,-2.2 -1.47,-4.4 -3.12,-6.7 -0.83,-1.1 -1.72,-2.2 -2.63,-3.3 l -2.22,-1.8 c -1.47,-1.2 -2.89,-2.5 -4.42,-3.6 -3.09,-2.1 -6.13,-4.3 -9.33,-6 -12.57,-7.5 -25.87,-12.9 -39.31,-17.4 -13.51,-4.5 -27.18,-8.2 -41.17,-10.5 25.45,11.7 51.11,23.4 72.94,38.8 2.77,1.9 5.17,4 7.69,6 l 3.47,3.2 1.68,1.6 0.45,0.9 c 1.7,2.7 1.9,9.5 1.24,15.5 -1.3,12.5 -4.48,25.6 -8.27,38.4 -7.28,25.9 -16.53,51.5 -25.42,77.3 -9.08,25.7 -18.29,51.5 -26.67,77.8" /><path
         id="path826"
         style="fill:#050849;fill-opacity:1;fill-rule:nonzero;stroke:none"
         d="m 6859.06,7686 c 0,0 429.05,-18.1 653.33,-291.1 224.28,-272.9 860.39,-2950.3 860.39,-2950.3 l -715.39,76.5 c 0,0 -930.26,1271.8 -930.26,1304.5 0,32.8 131.93,1860.4 131.93,1860.4" /><path
         id="path828"
         style="fill:#ffc0bb;fill-opacity:1;fill-rule:nonzero;stroke:none"
         d="m 6015.89,7681.7 c 0,0 821.26,1.7 833.95,0.8 12.69,-0.8 75.7,5.9 98.89,-18.4 23.19,-24.2 63.21,-158 -51.02,-223.5 -114.25,-65.5 128.57,-68.2 -181.3,-122.8 -309.88,-54.6 -217.01,-128.2 -451.9,-32.7 -234.9,95.5 -265.16,54.6 -273.25,139.2 -8.08,84.6 24.63,257.4 24.63,257.4" /><path
         id="path830"
         style="fill:#07085b;fill-opacity:1;fill-rule:nonzero;stroke:none"
         d="m 7648.17,6466.3 c -47.64,429.7 -162.9,717.8 -292.12,910.9 -96.59,144.3 -242.89,244.6 -407.32,286.9 -0.74,-2.8 -41.61,-155.4 -252.67,-179.8 -213.05,-24.6 -672,197.9 -680.17,197.4 l -0.01,0.1 c -237.09,-14.8 -442.12,-59.3 -548.93,-183.9 -213.03,-248.3 -917.73,-1982.6 -901.34,-2227.6 16.39,-245 204.88,-245 204.88,-245 l 1929.97,-0.9 v -443.9 l 1399.97,-95.6 c -39.03,25.8 -317.3,764.2 -452.26,1981.4" /><path
         id="path832"
         style="fill:#daeef7;fill-opacity:1;fill-rule:nonzero;stroke:none"
         d="m 7803.23,6634.9 c 12.32,-0.4 509.6,300.7 509.6,300.7 l 92.93,-19.7 -32.98,-24.3 55.58,13.9 90.41,-13.9 c 0,0 -298.87,-352.5 -303.89,-362.5 -5.02,-10.1 -135.62,-60.3 -145.67,-65.3 -10.04,-5 -265.98,171.1 -265.98,171.1" /><path
         id="path834"
         style="fill:#daeef7;fill-opacity:1;fill-rule:nonzero;stroke:none"
         d="m 7007.47,6875.4 45.21,28.2 20.71,-14.1 v 26.4 l 28.26,19.7 723.32,-286.1 c 0,0 -231.69,-146.8 -239.23,-141.1 -7.53,5.6 -420.05,80.9 -427.58,92.2 -7.53,11.3 -150.69,274.8 -150.69,274.8" /><path
         id="path836"
         style="fill:#feb546;fill-opacity:1;fill-rule:nonzero;stroke:none"
         d="m 7018.91,6888.7 819.8,-265.3 661.11,287.7 c 40.13,17.4 84.14,-15 79.28,-58.5 l -125.93,-1126 c -2.1,-18.7 -13.34,-35.2 -30.02,-43.9 l -634.77,-334.4 -574.95,212.7 -14.8,21.7 -74.54,11.3 -241.08,89.2 c -21.54,8 -35.1,29.4 -33.14,52.2 l 94.81,1104.1 c 3.13,36.5 39.39,60.5 74.23,49.2" /><path
         id="path838"
         style="fill:#f4a640;fill-opacity:1;fill-rule:nonzero;stroke:none"
         d="m 7018.91,6888.8 c -34.84,11.2 -71.1,-12.8 -74.23,-49.3 L 6850,5736.9 c -2.04,-23.7 12.04,-45.9 34.39,-54.2 l 239.7,-88.7 74.53,-11.3 14.81,-21.7 386.72,-143.1 c 88.96,17.2 177.24,33.7 177.24,33.7 l 61.32,1171.8 -819.8,265.4" /><path
         id="path840"
         style="fill:#f4a640;fill-opacity:1;fill-rule:nonzero;stroke:none"
         d="m 7961.08,6488.9 511.23,223.4 -16.32,-232.2 -501.05,-232.1 6.14,240.9" /><path
         id="path842"
         style="fill:#2b1c35;fill-opacity:1;fill-rule:nonzero;stroke:none"
         d="m 8237.2,4577.7 c 0,0 1731.01,54.6 2124.3,-316.6 393.3,-371.2 11,-3112 -54.6,-3368.198 0,0 -240.4,-223.402 -524.42,-136.101 -284.06,87.301 -174.8,1309.999 -174.8,1309.999 0,0 32.77,1168.1 -10.93,1331.9 -43.7,163.7 -644.6,283.8 -644.6,283.8 0,0 -928.66,644.1 -874.03,644.1 54.62,0 159.08,251.1 159.08,251.1" /><path
         id="path844"
         style="fill:#3a2645;fill-opacity:1;fill-rule:nonzero;stroke:none"
         d="m 6700.46,4630.2 c 0,0 2317.24,275 2634.08,-773 316.84,-1048 557.19,-3122.2 557.19,-3122.2 0,0 -305.91,-185.602 -721.07,0 0,0 -587.21,2227 -807.1,2445.4 -219.89,218.3 -1663.1,85.2 -1663.1,85.2 v 1364.6" /><path
         id="path846"
         style="fill:#ffffff;fill-opacity:1;fill-rule:nonzero;stroke:none"
         d="m 7296.06,5296.5 c -8.83,50.1 -21.34,99.3 -35.52,147.9 -14.42,48.7 -30.35,96.6 -49.5,143.9 l -2.14,5.3 -5.81,0.3 -1546.18,77.4 c 5.78,46.9 20.08,92.9 35.65,138 16.44,46.8 35.18,92.8 54.78,138.5 39.47,91.2 82.76,180.7 127.53,269.5 89.92,177.4 185.57,352 285.16,524.2 l -1.59,1 C 6057.64,6570.9 5960.77,6397 5869.57,6220 c -45.42,-88.5 -89.38,-177.9 -129.58,-269 -19.97,-45.6 -39.08,-91.7 -55.96,-138.6 -16.55,-47 -31.92,-94.9 -37.73,-145.3 l -0.59,-5 5.24,-0.3 1545.18,-85.8 c 17.76,-44.5 33.16,-90.5 46.82,-136.7 14.01,-48.1 26.35,-96.8 35.03,-146 8.47,-49.3 15.6,-98.9 15.76,-148.7 0.57,-47.5 -3.14,-95.3 -15.69,-140.8 l -457.63,13.3 -232.23,6.5 -232.32,3.9 -0.07,-2.2 232.12,-9.2 232.11,-9.9 464.23,-19.2 6.37,-0.3 1.87,6.1 c 15.23,49.5 19.9,101.1 19.67,152.1 -0.2,51.1 -7.49,101.6 -16.11,151.6" /><path
         id="path848"
         style="fill:#ed9935;fill-opacity:1;fill-rule:nonzero;stroke:none"
         d="m 7785.41,6639.5 -59.28,-1234.7 90.49,13.1 63.71,1221.6 c 0,0 -47.83,33.2 -94.92,0" /><path
         id="path850"
         style="fill:#ffc0bb;fill-opacity:1;fill-rule:nonzero;stroke:none"
         d="m 7851.42,5471.5 c -114.72,-50.5 -347.5,-13.8 -347.5,-13.8 l -176.23,61.2 c -24.65,-16.7 -49.73,-33.7 -74.55,-50.3 2.49,-8 5,-16.1 7.4,-24.2 14.18,-48.6 26.69,-97.8 35.52,-147.9 8.62,-50 15.91,-100.5 16.11,-151.6 0.04,-8.4 -0.29,-16.7 -0.54,-25.1 l 24.81,9.2 c 29.98,-6 84.27,-0.9 159.51,10.7 85.89,11 221.66,29.9 280.98,47 42.77,12.3 61.35,39.5 69.2,64.8 33.82,20.6 36.98,59 32.9,89.6 0.96,2 1.8,3.9 2.43,5.9 16.5,51.5 7.31,64.9 -1.13,70.1 6.03,6.2 10.23,13 12.06,20.3 19.12,76.4 -40.97,34.1 -40.97,34.1" /><path
         id="path852"
         style="fill:#f99893;fill-opacity:1;fill-rule:nonzero;stroke:none"
         d="m 7880.33,5345.2 c -13.8,-16.1 -31.64,-28.3 -50.22,-38.6 -18.66,-10.3 -38.82,-17.7 -59.33,-23.4 -20.67,-5.2 -41.75,-8.7 -62.97,-9.6 -10.57,-0.7 -21.2,-0.1 -31.76,-0.3 -10.55,0.8 -21.08,1.8 -31.53,3 21.1,1.1 41.98,1.8 62.69,4.4 20.69,2.5 41.14,6.2 61.22,11.4 20.03,5.3 39.59,12.2 58.5,20.8 18.79,8.7 37.04,19 53.4,32.3" /><path
         id="path854"
         style="fill:#f99893;fill-opacity:1;fill-rule:nonzero;stroke:none"
         d="m 7846.39,5251.3 c -15.03,-14.9 -33.78,-25.7 -53.11,-34.5 -19.42,-8.8 -40.1,-14.6 -60.99,-18.6 -21.02,-3.5 -42.3,-5.4 -63.53,-4.6 -10.6,0.1 -21.15,1.5 -31.68,2.2 -10.46,1.6 -20.89,3.4 -31.2,5.5 21.11,-0.6 41.99,-1.6 62.84,-0.6 20.82,0.9 41.5,2.9 61.92,6.5 20.39,3.8 40.44,9.1 59.97,16.2 19.42,7.2 38.43,16 55.78,27.9" /><path
         id="path856"
         style="fill:#f99893;fill-opacity:1;fill-rule:nonzero;stroke:none"
         d="m 7880.33,5417.1 c -13.8,-16.1 -31.64,-28.3 -50.22,-38.6 -18.66,-10.3 -38.82,-17.7 -59.33,-23.4 -20.67,-5.1 -41.75,-8.6 -62.97,-9.5 -10.57,-0.8 -21.2,-0.2 -31.76,-0.3 -10.55,0.8 -21.08,1.7 -31.53,3 21.1,1 41.98,1.7 62.69,4.3 20.69,2.6 41.14,6.2 61.22,11.4 20.03,5.4 39.59,12.3 58.5,20.8 18.79,8.8 37.04,19.1 53.4,32.3" /><path
         id="path858"
         style="fill:#f99893;fill-opacity:1;fill-rule:nonzero;stroke:none"
         d="m 6536.31,8281.9 c 48.09,-5.6 94.91,-13.8 141.98,-20.4 47.1,-6.8 93.68,-12.5 142.01,-14.4 -47.15,-12.6 -96.96,-10.3 -144.65,-3.8 -47.79,7.3 -94.97,19 -139.34,38.6" /><path
         id="path860"
         style="fill:#3d3a55;fill-opacity:1;fill-rule:nonzero;stroke:none"
         d="m 3840.38,3.5 h -174.94 l 436.3,1713.1 164.3,-41.8 L 3840.38,3.5" /><path
         id="path862"
         style="fill:#3d3a55;fill-opacity:1;fill-rule:nonzero;stroke:none"
         d="m 7048.12,3.5 h -174.94 l 436.3,1713.1 164.3,-41.8 L 7048.12,3.5" /><path
         id="path864"
         style="fill:#3d3a55;fill-opacity:1;fill-rule:nonzero;stroke:none"
         d="m 5971.3,3.5 h 174.94 l -436.3,1713.1 -164.3,-41.8 L 5971.3,3.5" /><g
         transform="scale(1.92377)"
         id="g866"><path
           id="path868"
           style="fill:#4188e4;fill-opacity:1;fill-rule:nonzero;stroke:none"
           d="m 16300,6962.06 h -2794.2 v 159.85 H 16300 v -159.85" /></g><g
         transform="scale(1.97227)"
         id="g870"><path
           id="path872"
           style="fill:#4188e4;fill-opacity:1;fill-rule:nonzero;stroke:none"
           d="M 16300,5462.97 H 13574.5 V 5618.9 H 16300 v -155.93" /></g><path
         id="path874"
         style="fill:#09083c;fill-opacity:1;fill-rule:nonzero;stroke:none"
         d="M 12645.4,1461.7 H 12493 v 12442.4 h 152.4 V 1461.7" /><path
         id="path876"
         style="fill:#09083c;fill-opacity:1;fill-rule:nonzero;stroke:none"
         d="m 14277.9,1461.7 h -152.4 v 12442.4 h 152.4 V 1461.7" /><path
         id="path878"
         style="fill:#09083c;fill-opacity:1;fill-rule:nonzero;stroke:none"
         d="m 14201.7,13585.9 h -1632.5 v 128.9 h 1632.5 v -128.9" /><path
         id="path880"
         style="fill:#09083c;fill-opacity:1;fill-rule:nonzero;stroke:none"
         d="m 14201.7,12750.9 h -1632.5 v 128.8 h 1632.5 v -128.8" /><path
         id="path882"
         style="fill:#09083c;fill-opacity:1;fill-rule:nonzero;stroke:none"
         d="m 14201.7,11915.8 h -1632.5 v 128.8 h 1632.5 v -128.8" /><path
         id="path884"
         style="fill:#09083c;fill-opacity:1;fill-rule:nonzero;stroke:none"
         d="m 14201.7,11080.7 h -1632.5 v 128.8 h 1632.5 v -128.8" /><path
         id="path886"
         style="fill:#09083c;fill-opacity:1;fill-rule:nonzero;stroke:none"
         d="m 14201.7,10245.6 h -1632.5 v 128.8 h 1632.5 v -128.8" /><path
         id="path888"
         style="fill:#09083c;fill-opacity:1;fill-rule:nonzero;stroke:none"
         d="m 14201.7,9410.5 h -1632.5 v 128.8 h 1632.5 v -128.8" /><path
         id="path890"
         style="fill:#09083c;fill-opacity:1;fill-rule:nonzero;stroke:none"
         d="m 14201.7,8575.4 h -1632.5 v 128.8 h 1632.5 v -128.8" /><path
         id="path892"
         style="fill:#09083c;fill-opacity:1;fill-rule:nonzero;stroke:none"
         d="m 14201.7,7740.3 h -1632.5 v 128.9 h 1632.5 v -128.9" /><path
         id="path894"
         style="fill:#09083c;fill-opacity:1;fill-rule:nonzero;stroke:none"
         d="m 14201.7,6905.2 h -1632.5 v 128.9 h 1632.5 v -128.9" /><path
         id="path896"
         style="fill:#09083c;fill-opacity:1;fill-rule:nonzero;stroke:none"
         d="M 14201.7,6070.1 H 12569.2 V 6199 h 1632.5 v -128.9" /><path
         id="path898"
         style="fill:#09083c;fill-opacity:1;fill-rule:nonzero;stroke:none"
         d="m 14201.7,5235.1 h -1632.5 v 128.8 h 1632.5 v -128.8" /><path
         id="path900"
         style="fill:#09083c;fill-opacity:1;fill-rule:nonzero;stroke:none"
         d="m 14201.7,4400 h -1632.5 v 128.8 h 1632.5 V 4400" /><path
         id="path902"
         style="fill:#09083c;fill-opacity:1;fill-rule:nonzero;stroke:none"
         d="m 14201.7,3564.9 h -1632.5 v 128.8 h 1632.5 v -128.8" /><g
         transform="scale(2.12644)"
         id="g904"><path
           id="path906"
           style="fill:#4188e4;fill-opacity:1;fill-rule:nonzero;stroke:none"
           d="m 16300,7285.84 c 0,-382.98 -310.7,-693.44 -694,-693.44 -383.2,0 -694,310.46 -694,693.44 0,382.97 310.8,693.43 694,693.43 383.3,0 694,-310.46 694,-693.43" /></g><g
         transform="scale(2.11826)"
         id="g908"><path
           id="path910"
           style="fill:#ffffff;fill-opacity:1;fill-rule:nonzero;stroke:none"
           d="m 16278.8,7352.39 c 21.2,-337.98 -235.8,-629.17 -574.1,-650.38 -338.2,-21.21 -629.6,235.59 -650.9,573.57 -21.2,337.99 235.8,629.17 574.1,650.38 338.2,21.21 629.6,-235.58 650.9,-573.57" /></g><g
         transform="scale(1.98444)"
         id="g912"><path
           id="path914"
           style="fill:#b0c1ec;fill-opacity:1;fill-rule:nonzero;stroke:none"
           d="m 16300,7818.97 v -16.92 h -220.5 v 16.92 h 220.5" /></g><g
         transform="scale(2.11439)"
         id="g916"><path
           id="path918"
           style="fill:#b0c1ec;fill-opacity:1;fill-rule:nonzero;stroke:none"
           d="m 16300,7338.42 v -15.89 h -207 v 15.89 h 207" /></g><g
         transform="scale(2.03682)"
         id="g920"><path
           id="path922"
           style="fill:#b0c1ec;fill-opacity:1;fill-rule:nonzero;stroke:none"
           d="m 16300,8013.59 h -16.5 v 214.67 h 16.5 v -214.67" /></g><g
         transform="scale(2.03682)"
         id="g924"><path
           id="path926"
           style="fill:#b0c1ec;fill-opacity:1;fill-rule:nonzero;stroke:none"
           d="m 16300,6978.6 h -16.5 v 214.68 h 16.5 V 6978.6" /></g><g
         transform="scale(2.03813)"
         id="g928"><path
           id="path930"
           style="fill:#b0c1ec;fill-opacity:1;fill-rule:nonzero;stroke:none"
           d="m 16300,7601.54 c 0,-9.81 -7.9,-17.76 -17.8,-17.76 -9.8,0 -17.7,7.95 -17.7,17.76 0,9.81 7.9,17.75 17.7,17.75 9.9,0 17.8,-7.94 17.8,-17.75" /></g><g
         transform="scale(2.03699)"
         id="g932"><path
           id="path934"
           style="fill:#b0c1ec;fill-opacity:1;fill-rule:nonzero;stroke:none"
           d="m 16291.3,7597.83 c -2.1,0 -4.1,0.77 -5.6,2.33 l -319.6,319.26 c -3.1,3.11 -3.1,8.14 0,11.24 3.2,3.1 8.2,3.1 11.3,0 l 319.5,-319.27 c 3.1,-3.1 3.1,-8.13 0,-11.23 -1.5,-1.56 -3.6,-2.33 -5.6,-2.33" /></g><g
         transform="scale(2.04988)"
         id="g936"><path
           id="path938"
           style="fill:#b0c1ec;fill-opacity:1;fill-rule:nonzero;stroke:none"
           d="m 16290.9,7237.31 c -1.2,0.67 -2.3,1.82 -2.8,3.33 l -102.6,309.76 c -1.1,3.01 0.6,6.26 3.6,7.25 3,1 6.3,-0.63 7.2,-3.64 l 102.7,-309.76 c 1,-3.01 -0.7,-6.26 -3.7,-7.25 -1.5,-0.51 -3.1,-0.34 -4.4,0.31" /></g></g></g></svg>